<svg id="Layer_1" data-name="Layer 1" xmlns="http://www.w3.org/2000/svg" xmlns:xlink="http://www.w3.org/1999/xlink" viewBox="0 0 1915.37 1571.84"><defs><style>.cls-1{fill:url(#linear-gradient);}.cls-2{fill:url(#linear-gradient-2);}.cls-3{fill:url(#linear-gradient-3);}.cls-4{fill:url(#linear-gradient-4);}.cls-5{fill:url(#linear-gradient-5);}</style><linearGradient id="linear-gradient" y1="1529.28" x2="1828.14" y2="1529.28" gradientUnits="userSpaceOnUse"><stop offset="0" stop-color="#ab0302"/><stop offset="0.86" stop-color="#df2b36"/></linearGradient><linearGradient id="linear-gradient-2" x1="-372.81" y1="387.84" x2="-182.61" y2="387.84" gradientTransform="matrix(0.95, -0.3, 0.3, 0.95, 647.93, 132.44)" gradientUnits="userSpaceOnUse"><stop offset="0.14" stop-color="#df2b36"/><stop offset="1" stop-color="#ab0302"/></linearGradient><linearGradient id="linear-gradient-3" x1="-33.24" y1="514.21" x2="779.55" y2="514.21" xlink:href="#linear-gradient-2"/><linearGradient id="linear-gradient-4" x1="-157.24" y1="346.31" x2="614.62" y2="346.31" xlink:href="#linear-gradient-2"/><linearGradient id="linear-gradient-5" x1="-167.69" y1="853.08" x2="-4.61" y2="853.08" xlink:href="#linear-gradient-2"/></defs><path d="M476.9,1189.69H185l-12.38,57.62H435l-12.38,58.57H160.25l-24.76,116.66H18.83l51.43-241.89q4.29-20.48,21.9-35t38.09-14.52h359Z"/><path d="M851.63,1422.54H522.13q-17.61,0-28.81-11.19t-11.19-27.86a57.93,57.93,0,0,1,1-10.47l51.42-241.89H651.17L601.65,1364H864Z"/><path d="M1308.74,1373q-4.76,20.48-22.38,35t-38.09,14.53h-309q-17.62,0-28.81-11t-11.19-28.09a57.92,57.92,0,0,1,1-10.47l40.95-192.37q4.29-20.48,21.9-35t38.1-14.52h309q18.09,0,29.29,11.19t11.19,27.85a39.74,39.74,0,0,1-1.43,10.48Zm-115.23-9,37.62-174.28H1055.9L1018.76,1364Z"/><path d="M1863.94,1373q-4.28,20.48-21.9,35T1804,1422.54H1407.31q-17.62,0-28.81-11.19t-11.19-27.86a57.92,57.92,0,0,1,1-10.47l51.43-241.89h116.66L1486.83,1364h87.61L1624,1131.13h87.63l-50,232.84h87.61l49.52-232.84h116.66Z"/><path class="cls-1" d="M130.88,1486.72H18.08L0,1571.84H112.66a14.24,14.24,0,0,0,10.16-4.31,13.93,13.93,0,0,0,4.58-9.88v-22.39a29.2,29.2,0,0,1,2.56-11.83l9.52-22.53a12.31,12.31,0,0,0,1-4.87,9,9,0,0,0-2.71-6.67A9.48,9.48,0,0,0,130.88,1486.72Zm-93.19,68,10.85-50.91h55.64s-15.58,23.11-39.3,23.11c0,0,28.45,7.76,28.45,27.8Zm234.36-68H173.16A17.15,17.15,0,0,0,162,1491a17.73,17.73,0,0,0-6.39,10.22l-15,70.66h34.07l5.43-25.46h59.66l-5.42,25.46h34.08l15-70.66a17.59,17.59,0,0,0,.28-3.06,11.06,11.06,0,0,0-3.27-8.14A11.43,11.43,0,0,0,272.05,1486.72Zm-28.65,42.56H183.73l5.43-25.46h59.67Zm165.93-42.56H304.6l-18.08,85.12H391.25a17.2,17.2,0,0,0,11.13-4.24,18.5,18.5,0,0,0,6.54-10.23l11.82-56.19a11.51,11.51,0,0,0,.42-3.06,11.06,11.06,0,0,0-3.27-8.14A11.62,11.62,0,0,0,409.33,1486.72Zm-34.07,68.15H324.21l10.85-51.19h51.18ZM580.13,1490a11,11,0,0,1,3.34,8.14,11.51,11.51,0,0,1-.42,3.06l-15,70.66H534l14.47-68H523l-14.6,68H482.9l14.46-68H471.77l-14.46,68H423.24l15-70.66a17.74,17.74,0,0,1,6.4-10.22,17.15,17.15,0,0,1,11.13-4.24H571.64A11.68,11.68,0,0,1,580.13,1490Zm24.89-3.26H639.1L621,1571.84H586.94Zm142.57,0h34.07l-15,70.65a17.77,17.77,0,0,1-6.42,10.23,17.22,17.22,0,0,1-11.14,4.24h-16.3q-12.12,0-17.7-9.25l-28.83-49.21-12.38,58.46H639.79l15-70.66a17.73,17.73,0,0,1,6.39-10.22,17.15,17.15,0,0,1,11.13-4.24h16.41q12,0,17.53,9.45l28.93,49.1Zm161.61,17.1H866.5l-14.46,68H818l14.47-68H789.87l3.61-17.1H912.82Zm119.48-17.1H938.41a17.15,17.15,0,0,0-11.13,4.24,17.73,17.73,0,0,0-6.39,10.22l-12,56.19a16.67,16.67,0,0,0-.28,3.06,11,11,0,0,0,3.27,8.21,11.53,11.53,0,0,0,8.41,3.2h90.27a17.22,17.22,0,0,0,11.13-4.24,18.42,18.42,0,0,0,6.53-10.23l11.83-56.19a11.92,11.92,0,0,0,.41-3.06,11.06,11.06,0,0,0-3.27-8.14A11.58,11.58,0,0,0,1028.68,1486.72Zm-34.08,68h-51l10.85-50.91h51.18Zm155.78-68h34.08l-15,70.65a17.75,17.75,0,0,1-6.41,10.23,17.27,17.27,0,0,1-11.15,4.24h-16.3q-12.12,0-17.7-9.25L1089,1513.38l-12.37,58.46h-34.06l15-70.66A17.73,17.73,0,0,1,1064,1491a17.18,17.18,0,0,1,11.13-4.24h16.41q12,0,17.53,9.45l28.93,49.1Zm232.41,0h34.08l-15,70.65a17.78,17.78,0,0,1-6.4,10.23,17.2,17.2,0,0,1-11.13,4.24H1268.46a11.38,11.38,0,0,1-8.41-3.27,11,11,0,0,1-3.27-8.14,16.67,16.67,0,0,1,.28-3.06l15-70.65h34.08l-14.47,68h25.59l14.47-68h25.59l-14.6,68h25.59Zm81.92,17.1-3.61,16.83h76.63l-3.61,17.11h-76.64l-3.62,17H1539l-3.61,17.11H1430.64a11.39,11.39,0,0,1-8.42-3.27,11,11,0,0,1-3.27-8.14,16.67,16.67,0,0,1,.28-3.06l12-56.19a17.79,17.79,0,0,1,6.4-10.22,17.15,17.15,0,0,1,11.13-4.24h104.87l-3.62,17.1Zm217.53-17.1h-98.89a17.1,17.1,0,0,0-11.12,4.24,17.69,17.69,0,0,0-6.4,10.22l-15,70.66h34.07l5.43-25.46H1650l-5.43,25.46h34.08l15-70.66a17.59,17.59,0,0,0,.28-3.06,11.1,11.1,0,0,0-3.27-8.14A11.43,11.43,0,0,0,1682.24,1486.72Zm-28.65,42.56h-59.67l5.43-25.46H1659Zm168.85-18.41-44.5,43.86h40.89l-3.62,17.11h-51.88q-6.25,0-9.88-3.91a14.06,14.06,0,0,1-3.61-9.92q0-9.63,7.66-17.32l38-36.87h-51.09l-14.44,68h-34l15-70.66a17.79,17.79,0,0,1,6.4-10.22,17.15,17.15,0,0,1,11.13-4.24h88.18a11,11,0,0,1,8.27,3.19,11.2,11.2,0,0,1,3.13,8.19Q1828.14,1505.18,1822.44,1510.87Z"/><path class="cls-2" d="M567.9,770.54a617.53,617.53,0,0,1-49-86.54c-13.8-29.74-25.11-60.26-32.95-91.29L483,581.1l-2.42-11.69c-1.84-7.74-2.83-15.61-4.23-23.38-.35-1.94-.55-3.9-.78-5.86l-.73-5.85-.73-5.84-.38-2.93-.22-2.92c-.57-7.82-1.38-15.62-1.49-23.4-.89-15.57,0-31.06.85-46.42l1.21-11.47.59-5.74c.21-1.89.58-3.79.86-5.68l1.71-11.36c.61-3.76,1.49-7.49,2.22-11.24,1.31-7.51,3.49-14.86,5.26-22.25l.7-2.76.84-2.74,1.69-5.45c1.16-3.63,2.13-7.3,3.44-10.88l3.92-10.71c.67-1.79,1.24-3.6,2-5.36l2.24-5.25c.64-1.45,1.26-2.91,1.89-4.38-14.28-58.09-23.82-107.44-30.17-147.08l-.12.13c-3,3.88-5.86,7.86-8.77,11.8s-5.84,7.86-8.64,11.88l-8,12.38-4,6.2c-1.31,2.08-2.68,4.12-3.82,6.3L430.82,252l-3.55,6.45c-.58,1.08-1.21,2.14-1.76,3.23L423.94,265l-6.27,13.34c-4.36,8.78-7.64,18.05-11.26,27.16l-2.66,6.85c-.87,2.27-1.56,4.63-2.35,6.95l-4.46,14c-1.48,4.65-2.57,9.45-3.87,14.16l-1.86,7.11-.92,3.54-.75,3.6c-2,9.58-4.1,19.13-5.35,28.83-3.24,19.26-4.36,38.78-4.95,58.17l.12,14.54.11,7.25c.08,2.42.28,4.84.41,7.25l.94,14.45c.39,4.81,1,9.58,1.54,14.36.9,9.6,2.73,19,4.25,28.47l.6,3.54.76,3.51,1.49,7c1.05,4.67,1.92,9.37,3.18,14,2.52,9.17,4.72,18.42,7.75,27.41L404.74,604l4.94,13.26c3.12,8.92,7,17.45,10.69,26.1,1.8,4.34,4,8.5,5.93,12.72s4,8.48,6.14,12.59L439.07,681l3.3,6.14,3.54,6,7.09,12c2.4,4,5,7.8,7.52,11.67a555.33,555.33,0,0,0,68.79,85.45A594.58,594.58,0,0,0,611.61,872a547.26,547.26,0,0,0,92.29,52.71c-26-23.82-50.69-48.22-73.49-73.89A763.06,763.06,0,0,1,567.9,770.54Z"/><path class="cls-3" d="M1536.1,361.74c-130.85-71.56-203.73-83.38-244.53-74.14,60.42-47.61,147-89.66,147-89.66-.56-.13-1.12-.29-1.66-.46a425.19,425.19,0,0,0-360.48,60.37C935.63,356.28,778.76,549.73,854.84,907c.75-3.09,91.62-357.33,681.29-545.21Z"/><path class="cls-4" d="M759.06,907.44c-1.88-6-184.24-522.27,306.49-750.5L1106.4,140S850.93,125.17,679.64,314.78c-.31-2.14-9.57-70.78,9.16-142.72a281.4,281.4,0,0,1,11.85-35.88c1.71-.86,3.43-1.69,5.16-2.52,57.09-27.42,120.06-44.8,185-53.36a775.25,775.25,0,0,1,199,.31c4.2.52,8.45.84,12.6,1.53l12.56,2,12.6,2c2.12.3,4.18.75,6.26,1.14l6.28,1.19,12.58,2.33,6.32,1.17c2.09.42,4.17,1,6.25,1.42,8.32,1.94,16.72,3.73,25.14,5.56,33.46,8.06,66.72,18,100.11,29.33-56.22-42.69-121.14-74.48-189.78-96.58A663,663,0,0,0,884.93.14C815.37,1.53,745,14.24,678.41,40.24q-6.07,2.37-12.11,4.89a521.83,521.83,0,0,0-66.2,33.35q-17.4,10.33-34,22.16l-11.65,8.6-5.82,4.34L543,118.2c-7.41,6.23-15.06,12.14-22,18.94h0c2.26,26.48,7.37,71.13,18.9,131.82C561,380.41,603.64,546,689.76,752.73Q720.56,826.65,759.06,907.44Z"/><path class="cls-5" d="M813.51,1029.38c45.84-.74,82.36-40.85,81.58-89.59l-166,2.66C729.88,991.2,767.67,1030.11,813.51,1029.38Z"/></svg>