<svg id="Layer_1" data-name="Layer 1" xmlns="http://www.w3.org/2000/svg" xmlns:xlink="http://www.w3.org/1999/xlink" viewBox="0 0 1911.63 1619.14"><defs><style>.cls-1{fill:url(#linear-gradient);}.cls-2{fill:url(#linear-gradient-2);}.cls-3{fill:url(#linear-gradient-3);}.cls-4{fill:url(#linear-gradient-4);}.cls-5{fill:#ab0302;}</style><linearGradient id="linear-gradient" x1="276.03" y1="496.57" x2="466.22" y2="496.57" gradientTransform="matrix(0.95, -0.3, 0.3, 0.95, -5.7, 221.96)" gradientUnits="userSpaceOnUse"><stop offset="0.14" stop-color="#df2b36"/><stop offset="1" stop-color="#ab0302"/></linearGradient><linearGradient id="linear-gradient-2" x1="615.59" y1="622.94" x2="1428.38" y2="622.94" xlink:href="#linear-gradient"/><linearGradient id="linear-gradient-3" x1="491.6" y1="455.03" x2="1263.45" y2="455.03" xlink:href="#linear-gradient"/><linearGradient id="linear-gradient-4" x1="481.14" y1="961.81" x2="644.23" y2="961.81" xlink:href="#linear-gradient"/></defs><path class="cls-1" d="M566,770.54A617.53,617.53,0,0,1,517,684c-13.8-29.74-25.11-60.26-32.95-91.29l-2.93-11.61-2.42-11.69c-1.84-7.74-2.83-15.61-4.22-23.38-.36-1.94-.55-3.9-.79-5.86l-.73-5.85-.73-5.84-.38-2.93-.22-2.92c-.57-7.82-1.38-15.62-1.49-23.4-.89-15.57,0-31.06.85-46.42l1.21-11.47.59-5.74c.21-1.89.58-3.79.86-5.68l1.71-11.36c.61-3.76,1.5-7.49,2.22-11.24,1.31-7.51,3.5-14.86,5.27-22.25l.69-2.76.84-2.74,1.69-5.45c1.16-3.63,2.13-7.3,3.45-10.88l3.92-10.71c.66-1.79,1.23-3.6,2-5.36l2.24-5.25c.64-1.45,1.25-2.91,1.88-4.38-14.27-58.09-23.82-107.44-30.17-147.08l-.12.13c-3,3.88-5.85,7.86-8.77,11.8s-5.84,7.86-8.64,11.88l-8,12.38-3.94,6.2c-1.32,2.08-2.69,4.12-3.83,6.3L429,252l-3.55,6.45c-.58,1.08-1.21,2.14-1.76,3.23L422.07,265l-6.26,13.34c-4.37,8.78-7.65,18.05-11.27,27.16l-2.66,6.85c-.87,2.27-1.56,4.63-2.35,6.95l-4.45,14c-1.49,4.65-2.58,9.45-3.88,14.16l-1.85,7.11-.93,3.54-.75,3.6c-2,9.58-4.1,19.13-5.35,28.83-3.23,19.26-4.36,38.78-4.95,58.17l.12,14.54.11,7.25c.08,2.42.28,4.84.41,7.25l.95,14.45c.38,4.81,1,9.58,1.54,14.36.9,9.6,2.72,19,4.25,28.47l.59,3.54.76,3.51,1.49,7c1.06,4.67,1.92,9.37,3.18,14,2.53,9.17,4.72,18.42,7.75,27.41L402.87,604l4.94,13.26c3.12,8.92,7,17.45,10.69,26.1,1.8,4.34,4,8.5,5.93,12.72s4,8.48,6.14,12.59L437.2,681l3.3,6.14,3.54,6,7.09,12c2.4,4,5,7.8,7.52,11.67a556.53,556.53,0,0,0,68.79,85.45A594.58,594.58,0,0,0,609.74,872,547.26,547.26,0,0,0,702,924.68c-26-23.82-50.69-48.22-73.49-73.89A764.39,764.39,0,0,1,566,770.54Z"/><path class="cls-2" d="M1534.24,361.74c-130.86-71.56-203.74-83.38-244.54-74.14,60.42-47.61,147-89.66,147-89.66-.56-.13-1.12-.29-1.66-.46a425.19,425.19,0,0,0-360.48,60.37C933.76,356.28,776.89,549.73,853,907c.75-3.09,91.62-357.33,681.29-545.21Z"/><path class="cls-3" d="M757.19,907.44c-1.88-6-184.24-522.27,306.49-750.5L1104.53,140S849.07,125.17,677.77,314.78c-.31-2.14-9.56-70.78,9.16-142.72a281.4,281.4,0,0,1,11.85-35.88c1.71-.86,3.44-1.69,5.16-2.52C761,106.24,824,88.86,888.89,80.3a775.33,775.33,0,0,1,199,.31c4.19.52,8.44.84,12.6,1.53l12.55,2,12.6,2c2.12.3,4.18.75,6.26,1.14l6.28,1.19,12.58,2.33,6.32,1.17c2.09.42,4.17,1,6.25,1.42,8.32,1.94,16.72,3.73,25.14,5.56,33.47,8.06,66.73,18,100.12,29.33-56.22-42.69-121.14-74.48-189.79-96.58A663,663,0,0,0,883.06.14c-69.56,1.39-139.93,14.1-206.52,40.1q-6.07,2.37-12.11,4.89a521.83,521.83,0,0,0-66.2,33.35q-17.4,10.33-34,22.16l-11.65,8.6-5.82,4.34-5.6,4.62c-7.41,6.23-15.06,12.14-22,18.94h0c2.27,26.48,7.38,71.13,18.9,131.82,21.12,111.45,63.8,277,149.92,483.77Q718.69,826.65,757.19,907.44Z"/><path class="cls-4" d="M811.64,1029.38c45.84-.74,82.36-40.85,81.58-89.59l-166,2.66C728,991.2,765.8,1030.11,811.64,1029.38Z"/><path d="M480,1146.28H189.54l-12.32,57.34H438.33L426,1261.91H164.9L140.26,1378H24.16l51.18-240.74q4.26-20.37,21.79-34.83T135,1088H492.35Z"/><path d="M853,1378H525.05q-17.53,0-28.67-11.14t-11.14-27.72a58.48,58.48,0,0,1,.95-10.43L537.37,1088h116.1l-49.28,231.73H865.3Z"/><path d="M1307.9,1328.72q-4.74,20.38-22.27,34.83T1247.72,1378H940.17q-17.53,0-28.67-10.9t-11.14-28a57.57,57.57,0,0,1,.95-10.43l40.76-191.45q4.26-20.37,21.79-34.83t37.91-14.45h307.56q18,0,29.14,11.14t11.14,27.72a39.3,39.3,0,0,1-1.43,10.42Zm-114.68-9,37.44-173.44H1056.27l-37,173.44Z"/><path d="M1860.45,1328.72q-4.26,20.38-21.8,34.83T1800.74,1378H1406q-17.54,0-28.67-11.14t-11.14-27.72a57.57,57.57,0,0,1,1-10.43L1418.32,1088h116.1l-49.28,231.73h87.19L1621.61,1088h87.21l-49.77,231.73h87.2L1795.53,1088h116.1Z"/><path d="M0,1618.47,8,1569H18.77q4.93,0,7.38,1.89a8.05,8.05,0,0,1,3,5.13,21.54,21.54,0,0,1-.06,7.2l-3.3,20.51a26.53,26.53,0,0,1-2.32,7.54,12.89,12.89,0,0,1-4.59,5.25,14.15,14.15,0,0,1-7.79,1.92Zm3.72-2.62h7.63a10.06,10.06,0,0,0,6.25-1.71,10,10,0,0,0,3.3-4.55,32.1,32.1,0,0,0,1.61-6.2l3.2-19.89a23.28,23.28,0,0,0,.28-6.26,5.89,5.89,0,0,0-2.09-4.09q-1.78-1.43-5.57-1.43H10.82Z"/><path d="M41.26,1618.47l8-49.44H66.31l-.43,2.69H52.15L49,1591.55h11.3l-.42,2.57H48.54L45,1615.85H59l-.43,2.62Z"/><path d="M84.86,1619.08a10.63,10.63,0,0,1-6.18-1.59,8,8,0,0,1-3.13-4.45,18.59,18.59,0,0,1-.53-6.78l3-.91a26.74,26.74,0,0,0,.39,5.74,6.52,6.52,0,0,0,2.09,3.87,7.29,7.29,0,0,0,4.85,1.37,9.71,9.71,0,0,0,6.06-1.83q2.4-1.83,3.09-6.1a9.54,9.54,0,0,0-.74-5.83A26.72,26.72,0,0,0,90,1597l-7.59-9a13,13,0,0,1-2.55-4.64,10.89,10.89,0,0,1-.27-4.76,11.22,11.22,0,0,1,4.23-7.5,13.25,13.25,0,0,1,8.27-2.63,13.8,13.8,0,0,1,4.41.64,7.18,7.18,0,0,1,3.17,2.08,8,8,0,0,1,1.74,3.81,21.19,21.19,0,0,1,.15,5.86l-2.91.67a18.57,18.57,0,0,0-.23-5.79,5.57,5.57,0,0,0-2.13-3.45,7.78,7.78,0,0,0-4.58-1.13,10.27,10.27,0,0,0-5.89,1.71,7.73,7.73,0,0,0-3.14,5.49,8.65,8.65,0,0,0,.17,3.66,10.58,10.58,0,0,0,2.22,3.85l7.5,8.79a29.65,29.65,0,0,1,4.15,6.25,11.93,11.93,0,0,1,1,7.3,13.87,13.87,0,0,1-2.39,6.13,10.87,10.87,0,0,1-4.48,3.57A14.9,14.9,0,0,1,84.86,1619.08Z"/><path d="M112.49,1618.47l8-49.44h3.3l-8,49.44Z"/><path d="M145.47,1619.14q-4.71,0-7-1.92a8.17,8.17,0,0,1-2.71-5.34,26.39,26.39,0,0,1,.24-7.75l3.38-21a28.88,28.88,0,0,1,2.24-7.63,11.89,11.89,0,0,1,4.46-5.16,14.13,14.13,0,0,1,7.68-1.86q4.33,0,6.54,1.71a7.59,7.59,0,0,1,2.75,4.88,23.07,23.07,0,0,1-.14,7.51l-.28,1.71H159.5l.3-1.89a21.38,21.38,0,0,0,.26-6.14,5.64,5.64,0,0,0-1.9-3.75,7.5,7.5,0,0,0-4.8-1.28,9.85,9.85,0,0,0-5.73,1.49,9,9,0,0,0-3.2,4.15,28.23,28.23,0,0,0-1.63,6.14l-3.47,21.54a23.3,23.3,0,0,0-.28,6.26,6.27,6.27,0,0,0,2,4.12q1.67,1.47,5.14,1.47a8.36,8.36,0,0,0,8.48-5.44,27.22,27.22,0,0,0,1.7-6.22l1.17-7.27h-7.88l.42-2.56h11l-3.79,23.56h-2.14l.41-5.55a11.47,11.47,0,0,1-3.76,4.54A10.62,10.62,0,0,1,145.47,1619.14Z"/><path d="M175.66,1618.47l8-49.44h2.63l10.06,41.75L203,1569H206l-8,49.44h-2.62l-10.06-41.81-6.73,41.81Z"/><path d="M216.8,1618.47l8-49.44h17.09l-.43,2.69H227.69l-3.2,19.83h11.29l-.41,2.57H224.08l-3.5,21.73H234.5l-.43,2.62Z"/><path d="M250.61,1618.47l8-49.44h10.81q5,0,7.38,1.89a8.07,8.07,0,0,1,3,5.13,21.56,21.56,0,0,1-.07,7.2l-3.3,20.51a26.53,26.53,0,0,1-2.31,7.54,12.84,12.84,0,0,1-4.6,5.25,14.13,14.13,0,0,1-7.79,1.92Zm3.72-2.62H262a9.1,9.1,0,0,0,9.55-6.26,31.4,31.4,0,0,0,1.61-6.2l3.21-19.89a23.24,23.24,0,0,0,.27-6.26,5.88,5.88,0,0,0-2.08-4.09q-1.78-1.43-5.57-1.43h-7.51Z"/><path d="M313.24,1618.47l8-49.44h10.19a13.37,13.37,0,0,1,5.49,1,6.43,6.43,0,0,1,3.06,2.65,9.2,9.2,0,0,1,1.13,3.94,20.91,20.91,0,0,1-.25,4.79,23,23,0,0,1-1.13,4.18,12.59,12.59,0,0,1-2.31,3.94,7.58,7.58,0,0,1-4,2.32,6.41,6.41,0,0,1,3.89,2.93,10.21,10.21,0,0,1,1.28,4.61,23.36,23.36,0,0,1-.25,4.73,37.58,37.58,0,0,1-1.26,5.37,15.81,15.81,0,0,1-2.3,4.61,10.55,10.55,0,0,1-3.85,3.23,13.07,13.07,0,0,1-6,1.19Zm3.71-2.62h7.94c3.26,0,5.59-1,7-2.87s2.46-4.87,3.11-8.85a19.1,19.1,0,0,0,.17-5.44,6.57,6.57,0,0,0-1.75-3.9,6,6,0,0,0-4.44-1.47h-8.42ZM321,1590.7h8.36a7.07,7.07,0,0,0,4.41-1.28,8.41,8.41,0,0,0,2.59-3.39,19.14,19.14,0,0,0,1.34-4.67,16.62,16.62,0,0,0,.12-4.94,4.93,4.93,0,0,0-2-3.45c-1.15-.84-3-1.25-5.63-1.25h-6.1Z"/><path d="M360.85,1618.47l2.54-15.81-6-33.63h3.42l4.93,29.66,14-29.66h3.42l-16.46,33.63-2.55,15.81Z"/><path d="M412.05,1618.47l8-49.44h10.2a13.4,13.4,0,0,1,5.49,1,6.45,6.45,0,0,1,3.05,2.65,9.21,9.21,0,0,1,1.14,3.94,21.49,21.49,0,0,1-.25,4.79,23,23,0,0,1-1.13,4.18,12.43,12.43,0,0,1-2.32,3.94,7.55,7.55,0,0,1-4,2.32,6.43,6.43,0,0,1,3.89,2.93,10.2,10.2,0,0,1,1.27,4.61,24.13,24.13,0,0,1-.24,4.73,37.58,37.58,0,0,1-1.26,5.37,16.06,16.06,0,0,1-2.3,4.61,10.55,10.55,0,0,1-3.85,3.23,13.1,13.1,0,0,1-6,1.19Zm3.72-2.62h7.94q4.88,0,7-2.87c1.43-1.91,2.46-4.87,3.1-8.85a19.5,19.5,0,0,0,.18-5.44,6.57,6.57,0,0,0-1.75-3.9,6,6,0,0,0-4.44-1.47H419.4Zm4.05-25.15h8.36a7.08,7.08,0,0,0,4.42-1.28,8.41,8.41,0,0,0,2.59-3.39,19.14,19.14,0,0,0,1.33-4.67,16.32,16.32,0,0,0,.13-4.94,4.93,4.93,0,0,0-2-3.45c-1.15-.84-3-1.25-5.63-1.25h-6.1Z"/><path d="M449,1618.47,467.32,1569h3.84l2.48,49.44h-3.36l-.36-13.67H457.1l-4.82,13.67Zm9-16.11h11.91l-1.27-29.3Z"/><path d="M489.94,1618.47l8-49.44h10.8q4.95,0,7.39,1.89a8.05,8.05,0,0,1,3,5.13,21.81,21.81,0,0,1-.06,7.2l-3.3,20.51a26.86,26.86,0,0,1-2.32,7.54,12.84,12.84,0,0,1-4.6,5.25,14.1,14.1,0,0,1-7.78,1.92Zm3.71-2.62h7.64a9.12,9.12,0,0,0,9.55-6.26,32.1,32.1,0,0,0,1.61-6.2l3.2-19.89a23.28,23.28,0,0,0,.28-6.26,5.89,5.89,0,0,0-2.09-4.09q-1.79-1.43-5.57-1.43h-7.51Z"/><path d="M530.65,1618.47l9.42-49.44h3.3l3.25,44.62,17.8-44.62h3.42l-6.55,49.44h-2.87l5.45-41.44-16.74,41.44h-2.44l-3.29-41.38-7.88,41.38Z"/><path d="M579.66,1618.47l8-49.44h3.3l-8,49.44Z"/><path d="M601.94,1618.47l8-49.44h2.62l10.06,41.75,6.73-41.75h2.93l-8,49.44h-2.63l-10-41.81-6.73,41.81Z"/><path d="M649.67,1618.47l7.53-46.75h-9.89l.43-2.69h22.83l-.43,2.69h-9.65L653,1618.47Z"/><path d="M689.24,1619.14q-4.83,0-7.17-1.92a8,8,0,0,1-2.85-5.25,24.19,24.19,0,0,1,.18-7.54l3.48-21.6a25.63,25.63,0,0,1,2.29-7.45,12.34,12.34,0,0,1,4.57-5.07,14.35,14.35,0,0,1,7.65-1.83c3.13,0,5.49.61,7.06,1.83a7.9,7.9,0,0,1,2.94,5.07,22.59,22.59,0,0,1-.1,7.45l-3.49,21.66a27.42,27.42,0,0,1-2.25,7.51,12.37,12.37,0,0,1-4.53,5.22A14.12,14.12,0,0,1,689.24,1619.14Zm.44-2.74a10.25,10.25,0,0,0,5.69-1.41,9,9,0,0,0,3.28-3.93,23.51,23.51,0,0,0,1.69-5.89l3.67-22.83a20.48,20.48,0,0,0,.21-5.86,5.8,5.8,0,0,0-2-3.88q-1.66-1.36-5.27-1.37a10.43,10.43,0,0,0-5.68,1.37,8.76,8.76,0,0,0-3.28,3.88,22.91,22.91,0,0,0-1.68,5.86l-3.68,22.83a20.66,20.66,0,0,0-.21,5.89,5.81,5.81,0,0,0,2,3.93C685.57,1615.93,687.31,1616.4,689.68,1616.4Z"/><path d="M719.43,1618.47l8-49.44H730l10.06,41.75L746.8,1569h2.93l-8,49.44h-2.62l-10.06-41.81-6.73,41.81Z"/><path d="M781.93,1618.47l8-49.44h11.6q4.46,0,6.69,1.68a7.18,7.18,0,0,1,2.78,4.55,19.13,19.13,0,0,1-.05,6.53,21.66,21.66,0,0,1-2,6.28,12.43,12.43,0,0,1-4.3,4.89,12.63,12.63,0,0,1-7.2,1.89H789l-3.8,23.62Zm7.51-26.18h7.63a11.4,11.4,0,0,0,5.09-1,8.06,8.06,0,0,0,3.4-3.33,18.29,18.29,0,0,0,1.93-6.13,17.31,17.31,0,0,0,.15-6.2,4.3,4.3,0,0,0-2.25-3.11,11.12,11.12,0,0,0-4.92-.89h-7.69Z"/><path d="M821.3,1618.47l8-49.44h3.3L825,1615.85h15l-.43,2.62Z"/><path d="M851.21,1618.47,869.54,1569h3.85l2.48,49.44h-3.36l-.36-13.67H859.33l-4.82,13.67Zm9-16.11h11.9l-1.26-29.3Z"/><path d="M897.9,1618.47l2.55-15.81-6-33.63h3.42l4.92,29.66,14-29.66h3.42l-16.47,33.63-2.54,15.81Z"/><path d="M927.75,1618.47l8-49.44H952.8l-.44,2.69H938.63l-3.19,19.83h11.29l-.41,2.57H935l-3.5,21.73h13.91l-.42,2.62Z"/><path d="M961.56,1618.47l8-49.44h12c2.92,0,5.09.54,6.48,1.62a6.64,6.64,0,0,1,2.52,4.39,19.42,19.42,0,0,1-.11,6.2,25.4,25.4,0,0,1-1.42,5.25,11.68,11.68,0,0,1-2.82,4.24,9,9,0,0,1-4.91,2.23l3.83,25.51h-3.29l-3.69-24.9h-9.21l-4,24.9Zm7.72-27.46h8.55a9.1,9.1,0,0,0,5-1.2,7.69,7.69,0,0,0,2.83-3.38,20.7,20.7,0,0,0,1.48-5.19c.5-3.13.37-5.51-.41-7.14s-2.73-2.44-5.86-2.44H972.4Z"/><path d="M1012.12,1619.08a10.63,10.63,0,0,1-6.18-1.59,8,8,0,0,1-3.13-4.45,18.59,18.59,0,0,1-.53-6.78l3-.91a26.74,26.74,0,0,0,.39,5.74,6.52,6.52,0,0,0,2.09,3.87,7.29,7.29,0,0,0,4.85,1.37,9.71,9.71,0,0,0,6.06-1.83q2.4-1.83,3.09-6.1a9.54,9.54,0,0,0-.74-5.83,26.72,26.72,0,0,0-3.83-5.58l-7.59-9a13,13,0,0,1-2.55-4.64,10.89,10.89,0,0,1-.27-4.76,11.22,11.22,0,0,1,4.23-7.5,13.22,13.22,0,0,1,8.26-2.63,13.82,13.82,0,0,1,4.42.64,7.18,7.18,0,0,1,3.17,2.08,7.88,7.88,0,0,1,1.74,3.81,21.19,21.19,0,0,1,.15,5.86l-2.91.67a18.57,18.57,0,0,0-.23-5.79,5.57,5.57,0,0,0-2.13-3.45,7.78,7.78,0,0,0-4.58-1.13,10.27,10.27,0,0,0-5.89,1.71,7.73,7.73,0,0,0-3.14,5.49,8.82,8.82,0,0,0,.17,3.66,10.58,10.58,0,0,0,2.22,3.85l7.5,8.79a29.65,29.65,0,0,1,4.15,6.25,11.93,11.93,0,0,1,1,7.3,13.87,13.87,0,0,1-2.39,6.13,10.87,10.87,0,0,1-4.48,3.57A14.9,14.9,0,0,1,1012.12,1619.08Z"/><path d="M1061,1618.47l8-49.44h17l-.42,2.63h-13.73l-3.21,19.89h11.84l-.41,2.57h-11.84l-3.92,24.35Z"/><path d="M1105.19,1619.14q-4.82,0-7.16-1.92a8,8,0,0,1-2.85-5.25,24.19,24.19,0,0,1,.18-7.54l3.47-21.6a25.94,25.94,0,0,1,2.3-7.45,12.34,12.34,0,0,1,4.57-5.07,14.35,14.35,0,0,1,7.65-1.83c3.13,0,5.49.61,7.06,1.83a7.9,7.9,0,0,1,2.94,5.07,22.59,22.59,0,0,1-.1,7.45l-3.49,21.66a27.42,27.42,0,0,1-2.25,7.51,12.37,12.37,0,0,1-4.53,5.22A14.13,14.13,0,0,1,1105.19,1619.14Zm.45-2.74a10.19,10.19,0,0,0,5.68-1.41,8.92,8.92,0,0,0,3.29-3.93,23.51,23.51,0,0,0,1.69-5.89l3.67-22.83a20.48,20.48,0,0,0,.21-5.86,5.8,5.8,0,0,0-2-3.88q-1.67-1.36-5.27-1.37a10.43,10.43,0,0,0-5.68,1.37,8.76,8.76,0,0,0-3.28,3.88,22.91,22.91,0,0,0-1.68,5.86l-3.68,22.83a20.66,20.66,0,0,0-.21,5.89,5.81,5.81,0,0,0,2,3.93C1101.53,1615.93,1103.27,1616.4,1105.64,1616.4Z"/><path d="M1135.39,1618.47l8-49.44h12c2.92,0,5.09.54,6.48,1.62a6.69,6.69,0,0,1,2.53,4.39,19.74,19.74,0,0,1-.12,6.2,25.4,25.4,0,0,1-1.42,5.25,11.56,11.56,0,0,1-2.82,4.24,9,9,0,0,1-4.91,2.23l3.83,25.51h-3.29l-3.69-24.9h-9.21l-4,24.9Zm7.72-27.46h8.55a9.1,9.1,0,0,0,5-1.2,7.63,7.63,0,0,0,2.83-3.38,20.7,20.7,0,0,0,1.48-5.19c.5-3.13.37-5.51-.41-7.14s-2.73-2.44-5.86-2.44h-8.48Z"/><path d="M1197.47,1618.47l8-49.44h10.19a13.37,13.37,0,0,1,5.49,1,6.43,6.43,0,0,1,3.06,2.65,9.06,9.06,0,0,1,1.13,3.94,20.91,20.91,0,0,1-.25,4.79,23,23,0,0,1-1.13,4.18,12.59,12.59,0,0,1-2.31,3.94,7.58,7.58,0,0,1-4,2.32,6.41,6.41,0,0,1,3.89,2.93,10.08,10.08,0,0,1,1.27,4.61,22.68,22.68,0,0,1-.24,4.73,37.58,37.58,0,0,1-1.26,5.37,15.81,15.81,0,0,1-2.3,4.61,10.55,10.55,0,0,1-3.85,3.23,13.07,13.07,0,0,1-6,1.19Zm3.72-2.62h7.93q4.88,0,7-2.87c1.43-1.91,2.46-4.87,3.1-8.85a18.77,18.77,0,0,0,.18-5.44,6.57,6.57,0,0,0-1.75-3.9,6,6,0,0,0-4.44-1.47h-8.42Zm4-25.15h8.36a7.07,7.07,0,0,0,4.41-1.28,8.41,8.41,0,0,0,2.59-3.39,18.71,18.71,0,0,0,1.33-4.67,16.32,16.32,0,0,0,.13-4.94,4.93,4.93,0,0,0-2-3.45c-1.15-.84-3-1.25-5.63-1.25h-6.1Z"/><path d="M1234.39,1618.47l18.34-49.44h3.84l2.48,49.44h-3.35l-.37-13.67h-12.82l-4.82,13.67Zm9-16.11h11.91l-1.26-29.3Z"/><path d="M1275.35,1618.47l8-49.44h10.8q5,0,7.39,1.89a8.05,8.05,0,0,1,3,5.13,21.81,21.81,0,0,1-.06,7.2l-3.31,20.51a26.53,26.53,0,0,1-2.31,7.54,12.84,12.84,0,0,1-4.6,5.25,14.1,14.1,0,0,1-7.78,1.92Zm3.72-2.62h7.62a9.1,9.1,0,0,0,9.55-6.26,31.39,31.39,0,0,0,1.62-6.2l3.2-19.89a22.84,22.84,0,0,0,.27-6.26,5.84,5.84,0,0,0-2.08-4.09q-1.79-1.43-5.57-1.43h-7.51Z"/><path d="M1316.06,1618.47l9.42-49.44h3.3l3.25,44.62,17.81-44.62h3.41l-6.55,49.44h-2.87l5.45-41.44-16.74,41.44h-2.44l-3.29-41.38-7.88,41.38Z"/><path d="M1365.07,1618.47l8-49.44h3.3l-8,49.44Z"/><path d="M1387.35,1618.47l8-49.44h2.62l10.07,41.75,6.72-41.75h2.93l-8,49.44h-2.62L1397,1576.66l-6.73,41.81Z"/><path d="M1435.08,1618.47l7.53-46.75h-9.89l.43-2.69H1456l-.43,2.69h-9.64l-7.53,46.75Z"/><path d="M1474.64,1619.14q-4.82,0-7.16-1.92a8,8,0,0,1-2.85-5.25,24.19,24.19,0,0,1,.18-7.54l3.47-21.6a25.94,25.94,0,0,1,2.3-7.45,12.34,12.34,0,0,1,4.57-5.07,14.35,14.35,0,0,1,7.65-1.83c3.13,0,5.49.61,7.06,1.83a7.9,7.9,0,0,1,2.94,5.07,22.59,22.59,0,0,1-.1,7.45l-3.49,21.66A27.42,27.42,0,0,1,1487,1612a12.37,12.37,0,0,1-4.53,5.22A14.13,14.13,0,0,1,1474.64,1619.14Zm.44-2.74a10.22,10.22,0,0,0,5.69-1.41,8.92,8.92,0,0,0,3.29-3.93,23.09,23.09,0,0,0,1.69-5.89l3.67-22.83a20.48,20.48,0,0,0,.21-5.86,5.8,5.8,0,0,0-2-3.88q-1.67-1.36-5.27-1.37a10.43,10.43,0,0,0-5.68,1.37,8.76,8.76,0,0,0-3.28,3.88,22.91,22.91,0,0,0-1.68,5.86l-3.68,22.83a20.66,20.66,0,0,0-.21,5.89,5.81,5.81,0,0,0,2,3.93A8.09,8.09,0,0,0,1475.08,1616.4Z"/><path d="M1504.84,1618.47l8-49.44h2.63l10.06,41.75,6.72-41.75h2.93l-8,49.44h-2.62l-10-41.81-6.73,41.81Z"/><path d="M1567.35,1618.47l8-49.44h11.6q4.45,0,6.69,1.68a7.18,7.18,0,0,1,2.78,4.55,18.88,18.88,0,0,1,0,6.53,21.36,21.36,0,0,1-2,6.28A12.49,12.49,0,0,1,1590,1593a12.63,12.63,0,0,1-7.2,1.89h-8.37l-3.8,23.62Zm7.51-26.18h7.63a11.39,11.39,0,0,0,5.08-1,8.06,8.06,0,0,0,3.4-3.33,18.07,18.07,0,0,0,1.93-6.13,17.31,17.31,0,0,0,.15-6.2,4.3,4.3,0,0,0-2.25-3.11,11.09,11.09,0,0,0-4.92-.89h-7.69Z"/><path d="M1606.71,1618.47l8-49.44h3.3l-7.54,46.82h15l-.42,2.62Z"/><path d="M1636.62,1618.47,1655,1569h3.84l2.48,49.44h-3.36l-.36-13.67h-12.82l-4.82,13.67Zm9-16.11h11.9l-1.26-29.3Z"/><path d="M1683.31,1618.47l2.55-15.81-6-33.63h3.41l4.93,29.66,14-29.66h3.41l-16.46,33.63-2.54,15.81Z"/><path d="M1713.16,1618.47l8-49.44h17.09l-.43,2.69H1724l-3.19,19.83h11.29l-.41,2.57h-11.29l-3.5,21.73h13.92l-.43,2.62Z"/><path d="M1747,1618.47l8-49.44h12q4.39,0,6.48,1.62a6.65,6.65,0,0,1,2.53,4.39,20,20,0,0,1-.11,6.2,25.42,25.42,0,0,1-1.43,5.25,11.43,11.43,0,0,1-2.82,4.24,9,9,0,0,1-4.9,2.23l3.82,25.51h-3.29l-3.68-24.9h-9.22l-4,24.9Zm7.72-27.46h8.55a9.1,9.1,0,0,0,5-1.2,7.71,7.71,0,0,0,2.84-3.38,20.71,20.71,0,0,0,1.47-5.19q.75-4.7-.4-7.14t-5.87-2.44h-8.48Z"/><path d="M1797.54,1619.08a10.65,10.65,0,0,1-6.19-1.59,8,8,0,0,1-3.13-4.45,18.39,18.39,0,0,1-.52-6.78l3-.91a26.74,26.74,0,0,0,.39,5.74,6.52,6.52,0,0,0,2.09,3.87,7.31,7.31,0,0,0,4.85,1.37,9.71,9.71,0,0,0,6.06-1.83q2.4-1.83,3.09-6.1a9.54,9.54,0,0,0-.74-5.83,26.72,26.72,0,0,0-3.83-5.58l-7.59-9a13,13,0,0,1-2.55-4.64,10.89,10.89,0,0,1-.27-4.76,11.22,11.22,0,0,1,4.23-7.5,13.25,13.25,0,0,1,8.27-2.63,13.8,13.8,0,0,1,4.41.64,7.18,7.18,0,0,1,3.17,2.08A7.88,7.88,0,0,1,1814,1575a20.44,20.44,0,0,1,.15,5.86l-2.91.67a18.61,18.61,0,0,0-.22-5.79,5.62,5.62,0,0,0-2.14-3.45,7.75,7.75,0,0,0-4.57-1.13,10.25,10.25,0,0,0-5.89,1.71,7.71,7.71,0,0,0-3.15,5.49,8.65,8.65,0,0,0,.18,3.66,10.4,10.4,0,0,0,2.21,3.85l7.5,8.79a29.65,29.65,0,0,1,4.15,6.25,11.85,11.85,0,0,1,1,7.3,13.87,13.87,0,0,1-2.39,6.13,10.8,10.8,0,0,1-4.48,3.57A14.85,14.85,0,0,1,1797.54,1619.08Z"/><path class="cls-5" d="M135.67,1441.88H23.41l-18,84.71H117.53a14.1,14.1,0,0,0,10.11-4.29,13.87,13.87,0,0,0,4.57-9.82v-22.29a29.06,29.06,0,0,1,2.54-11.77l9.48-22.42a12.38,12.38,0,0,0,1-4.85,8.88,8.88,0,0,0-2.7-6.64A9.42,9.42,0,0,0,135.67,1441.88Zm-92.75,67.69,10.8-50.66h55.37s-15.5,23-39.1,23c0,0,28.3,7.73,28.3,27.67Zm233.25-67.69H177.75a17.1,17.1,0,0,0-11.08,4.22,17.68,17.68,0,0,0-6.36,10.18l-14.95,70.31h33.91l5.4-25.33h59.38l-5.4,25.33h33.92l14.95-70.31a17.46,17.46,0,0,0,.27-3,11,11,0,0,0-3.25-8.1A11.37,11.37,0,0,0,276.17,1441.88Zm-28.52,42.36H188.27l5.39-25.33h59.39Zm165.14-42.36H308.56l-18,84.71H394.8a17.06,17.06,0,0,0,11.07-4.22,18.41,18.41,0,0,0,6.51-10.17l11.76-55.92a11.44,11.44,0,0,0,.42-3,11,11,0,0,0-3.26-8.1A11.55,11.55,0,0,0,412.79,1441.88Zm-33.91,67.83H328.07l10.8-50.94h50.94Zm203.89-64.58a10.86,10.86,0,0,1,3.32,8.1,11.85,11.85,0,0,1-.41,3l-14.95,70.31H536.81l14.4-67.68H525.88l-14.54,67.68H486l14.39-67.68H474.93l-14.4,67.68h-33.9l14.95-70.31a17.68,17.68,0,0,1,6.36-10.18,17.12,17.12,0,0,1,11.08-4.22h115.3A11.62,11.62,0,0,1,582.77,1445.13Zm24.78-3.25h33.91l-18,84.71H589.55Zm141.88,0h33.91l-15,70.32a17.63,17.63,0,0,1-6.39,10.17,17.07,17.07,0,0,1-11.09,4.22H734.67q-12.06,0-17.61-9.2l-28.7-49-12.31,58.17h-33.9l15-70.31a17.65,17.65,0,0,1,6.37-10.18,17.08,17.08,0,0,1,11.07-4.22h16.33q11.91,0,17.45,9.41l28.79,48.86Zm160.84,17H867.78l-14.4,67.68H819.47l14.39-67.68H791.51l3.59-17H913.87Zm118.91-17H939.34a17.08,17.08,0,0,0-11.07,4.22,17.65,17.65,0,0,0-6.37,10.18L910,1512.2a16.46,16.46,0,0,0-.28,3,10.92,10.92,0,0,0,3.25,8.17,11.48,11.48,0,0,0,8.38,3.18h89.83a17.07,17.07,0,0,0,11.08-4.22,18.34,18.34,0,0,0,6.5-10.17l11.77-55.92a11.43,11.43,0,0,0,.41-3,11,11,0,0,0-3.25-8.1A11.55,11.55,0,0,0,1029.18,1441.88Zm-33.91,67.69H944.46l10.8-50.66h50.94Zm155-67.69h33.91l-15,70.32a17.56,17.56,0,0,1-6.38,10.17,17.09,17.09,0,0,1-11.09,4.22h-16.22q-12.07,0-17.61-9.2l-28.7-49-12.31,58.17H1043l15-70.31a17.68,17.68,0,0,1,6.36-10.18,17.12,17.12,0,0,1,11.08-4.22h16.33q11.91,0,17.44,9.41l28.8,48.86Zm231.3,0h33.91l-15,70.32a17.63,17.63,0,0,1-6.36,10.17,17.07,17.07,0,0,1-11.08,4.22h-115.3a11.33,11.33,0,0,1-8.38-3.25,11,11,0,0,1-3.25-8.1,17.35,17.35,0,0,1,.27-3l15-70.32h33.92l-14.4,67.69h25.47l14.4-67.69h25.47l-14.54,67.69h25.47Zm81.53,17-3.6,16.75h76.27l-3.6,17h-76.27l-3.6,16.89H1537l-3.6,17H1429.21a11.33,11.33,0,0,1-8.37-3.25,11,11,0,0,1-3.26-8.1,17.37,17.37,0,0,1,.28-3l11.91-55.92a17.68,17.68,0,0,1,6.36-10.18,17.12,17.12,0,0,1,11.08-4.22h104.37l-3.6,17Zm216.49-17H1581.2a17.08,17.08,0,0,0-11.07,4.22,17.65,17.65,0,0,0-6.37,10.18l-15,70.31h33.91l5.4-25.33h59.39l-5.4,25.33H1676l15-70.31a17.48,17.48,0,0,0,.28-3,11,11,0,0,0-3.26-8.1A11.37,11.37,0,0,0,1679.62,1441.88Zm-28.52,42.36h-59.38l5.4-25.33h59.38Zm168.05-18.32-44.3,43.65h40.7l-3.6,17h-51.63q-6.24,0-9.83-3.89a14,14,0,0,1-3.6-9.87q0-9.58,7.63-17.23l37.86-36.69h-50.84l-14.37,67.68h-33.85l15-70.31a17.65,17.65,0,0,1,6.37-10.18,17.08,17.08,0,0,1,11.07-4.22h87.76a11,11,0,0,1,8.24,3.18,11.17,11.17,0,0,1,3.11,8.15Q1824.82,1460.25,1819.15,1465.92Z"/></svg>