<svg id="Layer_1" data-name="Layer 1" xmlns="http://www.w3.org/2000/svg" xmlns:xlink="http://www.w3.org/1999/xlink" viewBox="0 0 2247.3 1999.62"><defs><style>.cls-1{fill:url(#linear-gradient);}.cls-2{fill:url(#linear-gradient-2);}.cls-3{fill:url(#linear-gradient-3);}.cls-4{fill:url(#linear-gradient-4);}</style><linearGradient id="linear-gradient" x1="-1354.08" y1="-289.32" x2="-984.62" y2="-289.32" gradientTransform="matrix(0.95, -0.3, 0.3, 0.95, 1433.88, 1064.95)" gradientUnits="userSpaceOnUse"><stop offset="0.14" stop-color="#df2b36"/><stop offset="1" stop-color="#ab0302"/></linearGradient><linearGradient id="linear-gradient-2" x1="-694.47" y1="-43.83" x2="884.4" y2="-43.83" xlink:href="#linear-gradient"/><linearGradient id="linear-gradient-3" x1="-935.33" y1="-369.99" x2="564.03" y2="-369.99" xlink:href="#linear-gradient"/><linearGradient id="linear-gradient-4" x1="-955.64" y1="614.43" x2="-638.84" y2="614.43" xlink:href="#linear-gradient"/></defs><path class="cls-1" d="M366.48,1496.79c-36.75-53.81-68.23-110.43-95.24-168.1-26.82-57.77-48.78-117.06-64-177.33l-5.7-22.55-4.71-22.72c-3.57-15-5.48-30.33-8.2-45.41-.7-3.76-1.07-7.59-1.52-11.39l-1.43-11.37-1.41-11.33-.74-5.7-.43-5.67c-1.1-15.19-2.67-30.33-2.89-45.45-1.73-30.24,0-60.33,1.64-90.17l2.35-22.29,1.16-11.14c.41-3.67,1.12-7.36,1.66-11l3.33-22.08c1.18-7.3,2.9-14.54,4.31-21.82,2.54-14.6,6.79-28.87,10.23-43.23l1.36-5.36,1.63-5.32,3.27-10.59c2.26-7.06,4.15-14.19,6.7-21.13l7.61-20.82c1.3-3.48,2.41-7,3.81-10.41l4.35-10.19c1.24-2.81,2.44-5.65,3.67-8.5C209.55,542.84,191,447,178.67,370l-.22.24c-5.83,7.53-11.38,15.28-17,22.94s-11.34,15.27-16.78,23.07l-15.48,24-7.67,12.05c-2.55,4-5.21,8-7.44,12.23l-13.84,25-6.9,12.54c-1.13,2.09-2.34,4.15-3.42,6.26l-3,6.45L74.66,540.74c-8.48,17.06-14.85,35.07-21.88,52.76l-5.16,13.3c-1.69,4.42-3,9-4.57,13.5L34.4,647.5c-2.9,9-5,18.36-7.52,27.5l-3.62,13.81-1.79,6.88-1.45,7c-3.89,18.62-8,37.16-10.4,56C3.33,796.11,1.14,834,0,871.69l.24,28.24L.44,914c.17,4.71.55,9.39.8,14.08l1.84,28.08c.75,9.33,2,18.6,3,27.89,1.75,18.64,5.29,36.92,8.26,55.3l1.15,6.87,1.47,6.82,2.91,13.59c2,9.06,3.72,18.19,6.17,27.12,4.91,17.82,9.18,35.79,15.06,53.26l8.45,26.24L59.13,1199c6.06,17.33,13.66,33.91,20.76,50.7,3.5,8.43,7.71,16.51,11.53,24.71,4,8.18,7.69,16.47,11.92,24.46l12.88,23.95,6.41,11.93,6.87,11.62,13.79,23.23c4.66,7.72,9.75,15.14,14.61,22.67a1080.23,1080.23,0,0,0,133.62,166,1154.65,1154.65,0,0,0,159.87,135.55c56.79,39.93,116.69,74.57,179.27,102.39-50.5-46.27-98.46-93.68-142.76-143.53S402.85,1550.93,366.48,1496.79Z"/><path class="cls-2" d="M2247.25,702.68c-254.2-139-395.77-161.95-475-144,117.37-92.47,285.59-174.15,285.59-174.15-1.08-.27-2.17-.58-3.23-.9-239-68.53-496.51-25.11-700.24,117.26-273.55,191.22-578.27,567-430.48,1260.92,1.46-6,178-694.12,1323.43-1059.08Z"/><path class="cls-3" d="M737.81,1762.72c-3.64-11.67-357.88-1014.51,595.37-1457.87l79.36-32.91s-496.26-28.8-829,339.52c-.6-4.14-18.58-137.48,17.8-277.23a546.59,546.59,0,0,1,23-69.69c3.32-1.68,6.67-3.29,10-4.9,110.9-53.27,233.22-87,359.28-103.65a1505.88,1505.88,0,0,1,386.57.6c8.15,1,16.4,1.63,24.47,3l24.4,3.82,24.47,3.79c4.12.57,8.11,1.45,12.16,2.22l12.19,2.3,24.44,4.53,12.27,2.28c4.06.81,8.11,1.84,12.16,2.74,16.16,3.79,32.48,7.26,48.83,10.82,65,15.64,129.61,35,194.47,57-109.21-82.93-235.32-144.69-368.66-187.61A1288.1,1288.1,0,0,0,982.32.27C847.19,3,710.49,27.67,581.15,78.16q-11.8,4.61-23.52,9.51A1015.64,1015.64,0,0,0,429,152.44q-33.79,20.1-66.08,43.05L340.32,212.2,329,220.62l-10.88,9c-14.4,12.12-29.26,23.59-42.84,36.79l0,0c4.41,51.43,14.34,138.16,36.72,256.05C353,739,435.9,1060.59,603.19,1462.2Q663,1605.8,737.81,1762.72Z"/><path class="cls-4" d="M843.58,1999.6c89-1.43,160-79.35,158.47-174l-322.44,5.17C681.13,1925.43,754.54,2001,843.58,1999.6Z"/></svg>