<svg id="Layer_1" data-name="Layer 1" xmlns="http://www.w3.org/2000/svg" viewBox="0 0 2996.46 832.4"><defs><style>.cls-1{fill:#fff;}</style></defs><path class="cls-1" d="M1490.55,208.91h-290.5l-12.32,57.34h261.12l-12.32,58.29H1175.41l-24.64,116.1h-116.1l51.18-240.73q4.26-20.37,21.8-34.83t37.91-14.46h357.31Z"/><path class="cls-1" d="M1863.49,440.64H1535.56q-17.54,0-28.67-11.14t-11.13-27.72a57.46,57.46,0,0,1,1-10.42l51.18-240.74H1664L1614.7,382.35h261.11Z"/><path class="cls-1" d="M2318.42,391.36q-4.74,20.37-22.27,34.83t-37.92,14.45H1950.69q-17.55,0-28.67-10.9t-11.14-28a57.46,57.46,0,0,1,.95-10.42l40.75-191.45q4.26-20.37,21.8-34.83t37.91-14.46h307.55q18,0,29.14,11.14t11.14,27.72a39.41,39.41,0,0,1-1.42,10.43Zm-114.68-9,37.44-173.44H2066.79l-37,173.44Z"/><path class="cls-1" d="M2871,391.36q-4.28,20.37-21.8,34.83t-37.91,14.45H2416.51q-17.53,0-28.67-11.14t-11.14-27.72a58.37,58.37,0,0,1,1-10.42l51.18-240.74h116.1l-49.28,231.73h87.19l49.28-231.73h87.21l-49.77,231.73h87.2L2806,150.62h116.11Z"/><path class="cls-1" d="M1010.51,681.11l8-49.44h10.8q5,0,7.38,1.89a8,8,0,0,1,3,5.13,21.28,21.28,0,0,1-.06,7.2l-3.3,20.51a26.46,26.46,0,0,1-2.31,7.53,12.91,12.91,0,0,1-4.6,5.25,14.13,14.13,0,0,1-7.79,1.93Zm3.72-2.63h7.63a9.11,9.11,0,0,0,9.55-6.25A31.58,31.58,0,0,0,1033,666l3.21-19.9a23.16,23.16,0,0,0,.27-6.25,5.83,5.83,0,0,0-2.09-4.09c-1.18-1-3-1.44-5.56-1.44h-7.51Z"/><path class="cls-1" d="M1051.78,681.11l8-49.44h17.09l-.44,2.68h-13.73l-3.19,19.84h11.29l-.41,2.56h-11.29l-3.5,21.73h13.91l-.42,2.63Z"/><path class="cls-1" d="M1095.38,681.72a10.65,10.65,0,0,1-6.19-1.59,8,8,0,0,1-3.12-4.46,18.34,18.34,0,0,1-.53-6.77l3-.92a26.15,26.15,0,0,0,.38,5.74,6.55,6.55,0,0,0,2.09,3.88,7.37,7.37,0,0,0,4.85,1.37,9.71,9.71,0,0,0,6.06-1.83q2.4-1.83,3.09-6.11a9.52,9.52,0,0,0-.74-5.82,26.76,26.76,0,0,0-3.83-5.59l-7.59-9a13.42,13.42,0,0,1-2.55-4.64,10.9,10.9,0,0,1-.27-4.76,11.3,11.3,0,0,1,4.23-7.51,13.24,13.24,0,0,1,8.27-2.62,13.75,13.75,0,0,1,4.41.64,7.14,7.14,0,0,1,3.18,2.07,8,8,0,0,1,1.73,3.82,20.75,20.75,0,0,1,.16,5.86l-2.92.67a18.69,18.69,0,0,0-.22-5.8,5.68,5.68,0,0,0-2.13-3.45,7.88,7.88,0,0,0-4.58-1.13,10.27,10.27,0,0,0-5.89,1.71,7.74,7.74,0,0,0-3.15,5.49,8.69,8.69,0,0,0,.18,3.67,10.29,10.29,0,0,0,2.21,3.84l7.5,8.79a29.08,29.08,0,0,1,4.15,6.26,11.91,11.91,0,0,1,1,7.29,13.71,13.71,0,0,1-2.4,6.13,10.84,10.84,0,0,1-4.48,3.58A14.85,14.85,0,0,1,1095.38,681.72Z"/><path class="cls-1" d="M1123,681.11l8-49.44h3.3l-8,49.44Z"/><path class="cls-1" d="M1156,681.78c-3.14,0-5.45-.64-7-1.93a8.17,8.17,0,0,1-2.71-5.34,27.09,27.09,0,0,1,.24-7.75l3.38-21a28.8,28.8,0,0,1,2.24-7.62,12,12,0,0,1,4.46-5.16,14.14,14.14,0,0,1,7.69-1.86c2.89,0,5.06.57,6.53,1.7a7.62,7.62,0,0,1,2.75,4.89,22.8,22.8,0,0,1-.14,7.51l-.27,1.7H1170l.31-1.89a21.26,21.26,0,0,0,.25-6.13,5.53,5.53,0,0,0-1.9-3.75,7.43,7.43,0,0,0-4.79-1.29,9.79,9.79,0,0,0-5.74,1.5,9,9,0,0,0-3.2,4.15,29.14,29.14,0,0,0-1.63,6.13l-3.47,21.55a22.78,22.78,0,0,0-.27,6.25,6.18,6.18,0,0,0,2,4.13q1.65,1.45,5.13,1.46a8.31,8.31,0,0,0,8.48-5.43,27.31,27.31,0,0,0,1.7-6.23l1.17-7.26h-7.87l.41-2.56h11l-3.8,23.56h-2.13l.4-5.56a11.55,11.55,0,0,1-3.75,4.55A10.66,10.66,0,0,1,1156,681.78Z"/><path class="cls-1" d="M1186.18,681.11l8-49.44h2.62l10.06,41.74,6.73-41.74h2.93l-8,49.44h-2.63l-10.05-41.81-6.73,41.81Z"/><path class="cls-1" d="M1227.31,681.11l8-49.44h17.09l-.43,2.68H1238.2L1235,654.19h11.29l-.42,2.56h-11.29l-3.5,21.73H1245l-.42,2.63Z"/><path class="cls-1" d="M1261.13,681.11l8-49.44h10.8q5,0,7.39,1.89a8,8,0,0,1,3,5.13,21.8,21.8,0,0,1-.06,7.2l-3.3,20.51a26.79,26.79,0,0,1-2.32,7.53,12.89,12.89,0,0,1-4.59,5.25,14.15,14.15,0,0,1-7.79,1.93Zm3.72-2.63h7.63a9.13,9.13,0,0,0,9.55-6.25,32.3,32.3,0,0,0,1.61-6.2l3.2-19.9a23.21,23.21,0,0,0,.28-6.25,5.87,5.87,0,0,0-2.09-4.09q-1.79-1.44-5.57-1.44H1272Z"/><path class="cls-1" d="M1323.75,681.11l8-49.44h10.19a13.46,13.46,0,0,1,5.5.94,6.47,6.47,0,0,1,3,2.66,9.21,9.21,0,0,1,1.14,3.93,20.88,20.88,0,0,1-.26,4.79,22.32,22.32,0,0,1-1.13,4.19,12.28,12.28,0,0,1-2.31,3.93,7.49,7.49,0,0,1-4,2.32,6.46,6.46,0,0,1,3.89,2.93A10.37,10.37,0,0,1,1349,662a24.05,24.05,0,0,1-.24,4.73,39,39,0,0,1-1.27,5.37,15.68,15.68,0,0,1-2.3,4.61,10.64,10.64,0,0,1-3.84,3.24,13.23,13.23,0,0,1-6,1.19Zm3.72-2.63h7.94q4.88,0,7-2.87t3.1-8.85a19,19,0,0,0,.17-5.43,6.48,6.48,0,0,0-1.75-3.91,6,6,0,0,0-4.43-1.46h-8.42Zm4-25.15h8.36a7.05,7.05,0,0,0,4.42-1.28,8.4,8.4,0,0,0,2.59-3.38,19.81,19.81,0,0,0,1.33-4.68,17,17,0,0,0,.13-4.94,5,5,0,0,0-2-3.45q-1.72-1.25-5.63-1.25h-6.1Z"/><path class="cls-1" d="M1371.36,681.11l2.55-15.81-6-33.63h3.41l4.93,29.66,14-29.66h3.41L1377.2,665.3l-2.54,15.81Z"/><path class="cls-1" d="M1422.57,681.11l8-49.44h10.19a13.46,13.46,0,0,1,5.5.94,6.47,6.47,0,0,1,3,2.66,9.21,9.21,0,0,1,1.14,3.93,21.46,21.46,0,0,1-.26,4.79,23.11,23.11,0,0,1-1.13,4.19,12.47,12.47,0,0,1-2.31,3.93,7.52,7.52,0,0,1-4,2.32,6.41,6.41,0,0,1,3.89,2.93,10.25,10.25,0,0,1,1.28,4.61,23.28,23.28,0,0,1-.25,4.73,37.58,37.58,0,0,1-1.26,5.37,15.68,15.68,0,0,1-2.3,4.61,10.59,10.59,0,0,1-3.85,3.24,13.18,13.18,0,0,1-6,1.19Zm3.72-2.63h7.93c3.25,0,5.6-1,7-2.87s2.46-4.86,3.11-8.85a19,19,0,0,0,.17-5.43,6.6,6.6,0,0,0-1.75-3.91,6,6,0,0,0-4.43-1.46h-8.43Zm4-25.15h8.36a7.05,7.05,0,0,0,4.42-1.28,8.49,8.49,0,0,0,2.59-3.38A19.81,19.81,0,0,0,1447,644a16.61,16.61,0,0,0,.12-4.94,5,5,0,0,0-2-3.45c-1.14-.83-3-1.25-5.62-1.25h-6.11Z"/><path class="cls-1" d="M1459.5,681.11l18.33-49.44h3.85l2.48,49.44h-3.36l-.37-13.68h-12.81l-4.83,13.68Zm9-16.12h11.9l-1.26-29.3Z"/><path class="cls-1" d="M1500.45,681.11l8-49.44h10.81c3.29,0,5.76.63,7.38,1.89a8,8,0,0,1,3,5.13,21.54,21.54,0,0,1-.06,7.2l-3.3,20.51a26.78,26.78,0,0,1-2.31,7.53,12.91,12.91,0,0,1-4.6,5.25,14.15,14.15,0,0,1-7.79,1.93Zm3.72-2.63h7.63a9.11,9.11,0,0,0,9.55-6.25A32.3,32.3,0,0,0,1523,666l3.21-19.9a23.58,23.58,0,0,0,.27-6.25,5.83,5.83,0,0,0-2.09-4.09c-1.19-1-3-1.44-5.57-1.44h-7.5Z"/><path class="cls-1" d="M1541.16,681.11l9.43-49.44h3.29l3.25,44.61,17.81-44.61h3.42l-6.56,49.44h-2.87l5.46-41.45-16.75,41.45h-2.44l-3.28-41.39L1544,681.11Z"/><path class="cls-1" d="M1590.17,681.11l8-49.44h3.3l-8,49.44Z"/><path class="cls-1" d="M1612.45,681.11l8-49.44H1623l10.07,41.74,6.72-41.74h2.93l-8,49.44h-2.62l-10.06-41.81-6.73,41.81Z"/><path class="cls-1" d="M1660.18,681.11l7.53-46.76h-9.89l.43-2.68h22.83l-.43,2.68H1671l-7.53,46.76Z"/><path class="cls-1" d="M1699.75,681.78c-3.22,0-5.6-.64-7.17-1.93a8.1,8.1,0,0,1-2.85-5.25,24.75,24.75,0,0,1,.18-7.53l3.48-21.61a25.33,25.33,0,0,1,2.3-7.45,12.31,12.31,0,0,1,4.57-5.06,14.3,14.3,0,0,1,7.65-1.83q4.69,0,7.06,1.83a7.89,7.89,0,0,1,2.93,5.06,22.3,22.3,0,0,1-.09,7.45l-3.49,21.67a28,28,0,0,1-2.25,7.5,12.51,12.51,0,0,1-4.53,5.22A14.07,14.07,0,0,1,1699.75,681.78Zm.44-2.75a10.31,10.31,0,0,0,5.69-1.4,9,9,0,0,0,3.29-3.94,23.39,23.39,0,0,0,1.68-5.89l3.68-22.83a20.48,20.48,0,0,0,.21-5.86,5.75,5.75,0,0,0-2-3.87q-1.68-1.38-5.28-1.38a10.36,10.36,0,0,0-5.68,1.38,8.74,8.74,0,0,0-3.28,3.87,22.91,22.91,0,0,0-1.68,5.86l-3.67,22.83a20.71,20.71,0,0,0-.22,5.89,5.88,5.88,0,0,0,2,3.94A8.18,8.18,0,0,0,1700.19,679Z"/><path class="cls-1" d="M1730,681.11l8-49.44h2.62l10.06,41.74,6.73-41.74h2.93l-8,49.44h-2.63l-10.05-41.81-6.73,41.81Z"/><path class="cls-1" d="M1792.45,681.11l8-49.44H1812q4.45,0,6.69,1.67a7.14,7.14,0,0,1,2.78,4.55,18.88,18.88,0,0,1,0,6.53,21.71,21.71,0,0,1-2,6.29,12,12,0,0,1-11.5,6.77h-8.36l-3.81,23.63Zm7.51-26.19h7.63a11.22,11.22,0,0,0,5.08-1,8.09,8.09,0,0,0,3.4-3.32,18.34,18.34,0,0,0,1.94-6.14,17.44,17.44,0,0,0,.14-6.19,4.34,4.34,0,0,0-2.24-3.12,11.15,11.15,0,0,0-4.93-.88h-7.69Z"/><path class="cls-1" d="M1831.82,681.11l8-49.44h3.29l-7.54,46.81h15l-.42,2.63Z"/><path class="cls-1" d="M1861.72,681.11l18.34-49.44h3.84l2.48,49.44H1883l-.37-13.68h-12.82L1865,681.11Zm9-16.12h11.91l-1.27-29.3Z"/><path class="cls-1" d="M1908.42,681.11,1911,665.3l-6-33.63h3.42l4.93,29.66,14-29.66h3.42l-16.46,33.63-2.55,15.81Z"/><path class="cls-1" d="M1938.26,681.11l8-49.44h17.09l-.43,2.68h-13.73l-3.2,19.84h11.29l-.41,2.56h-11.29l-3.5,21.73H1956l-.43,2.63Z"/><path class="cls-1" d="M1972.08,681.11l8-49.44h12c2.93,0,5.09.53,6.48,1.61a6.67,6.67,0,0,1,2.53,4.4,19.65,19.65,0,0,1-.11,6.19,26,26,0,0,1-1.42,5.25,11.58,11.58,0,0,1-2.83,4.24,8.93,8.93,0,0,1-4.9,2.23l3.83,25.52h-3.3l-3.68-24.91h-9.22l-4,24.91Zm7.71-27.47h8.55a9.15,9.15,0,0,0,5-1.19,7.69,7.69,0,0,0,2.84-3.39,20.47,20.47,0,0,0,1.47-5.19c.51-3.13.37-5.51-.4-7.14s-2.73-2.44-5.87-2.44h-8.48Z"/><path class="cls-1" d="M2022.64,681.72a10.65,10.65,0,0,1-6.19-1.59,8,8,0,0,1-3.12-4.46,18.34,18.34,0,0,1-.53-6.77l3-.92a26.15,26.15,0,0,0,.38,5.74,6.55,6.55,0,0,0,2.09,3.88,7.37,7.37,0,0,0,4.85,1.37,9.69,9.69,0,0,0,6.06-1.83q2.4-1.83,3.09-6.11a9.52,9.52,0,0,0-.74-5.82,26.76,26.76,0,0,0-3.83-5.59l-7.59-9a13.42,13.42,0,0,1-2.55-4.64,10.9,10.9,0,0,1-.27-4.76,11.3,11.3,0,0,1,4.23-7.51,13.24,13.24,0,0,1,8.27-2.62,13.75,13.75,0,0,1,4.41.64,7.14,7.14,0,0,1,3.18,2.07,8,8,0,0,1,1.73,3.82,20.75,20.75,0,0,1,.16,5.86l-2.92.67a18.69,18.69,0,0,0-.22-5.8,5.61,5.61,0,0,0-2.14-3.45,7.82,7.82,0,0,0-4.57-1.13,10.27,10.27,0,0,0-5.89,1.71,7.74,7.74,0,0,0-3.15,5.49,8.69,8.69,0,0,0,.18,3.67,10.43,10.43,0,0,0,2.21,3.84l7.5,8.79a29.08,29.08,0,0,1,4.15,6.26,11.83,11.83,0,0,1,1,7.29A13.59,13.59,0,0,1,2033,677a10.84,10.84,0,0,1-4.48,3.58A14.85,14.85,0,0,1,2022.64,681.72Z"/><path class="cls-1" d="M2071.5,681.11l8-49.44h17l-.42,2.62h-13.73l-3.2,19.9H2091l-.41,2.56h-11.84l-3.92,24.36Z"/><path class="cls-1" d="M2115.71,681.78q-4.83,0-7.17-1.93a8.1,8.1,0,0,1-2.85-5.25,24.75,24.75,0,0,1,.18-7.53l3.48-21.61a25.33,25.33,0,0,1,2.3-7.45,12.31,12.31,0,0,1,4.57-5.06,14.28,14.28,0,0,1,7.64-1.83c3.14,0,5.49.61,7.07,1.83a7.89,7.89,0,0,1,2.93,5.06,22.06,22.06,0,0,1-.1,7.45l-3.49,21.67a27.59,27.59,0,0,1-2.24,7.5,12.51,12.51,0,0,1-4.53,5.22A14.07,14.07,0,0,1,2115.71,681.78Zm.44-2.75a10.31,10.31,0,0,0,5.69-1.4,9,9,0,0,0,3.29-3.94,23.39,23.39,0,0,0,1.68-5.89l3.68-22.83a20.85,20.85,0,0,0,.21-5.86,5.75,5.75,0,0,0-2-3.87q-1.68-1.38-5.28-1.38a10.36,10.36,0,0,0-5.68,1.38,8.74,8.74,0,0,0-3.28,3.87,22.91,22.91,0,0,0-1.68,5.86l-3.67,22.83a20.71,20.71,0,0,0-.22,5.89,5.88,5.88,0,0,0,2,3.94A8.16,8.16,0,0,0,2116.15,679Z"/><path class="cls-1" d="M2145.91,681.11l8-49.44h12c2.93,0,5.09.53,6.48,1.61a6.67,6.67,0,0,1,2.53,4.4,19.65,19.65,0,0,1-.11,6.19,26,26,0,0,1-1.42,5.25,11.68,11.68,0,0,1-2.82,4.24,9,9,0,0,1-4.91,2.23l3.83,25.52h-3.3l-3.68-24.91h-9.22l-4,24.91Zm7.72-27.47h8.54a9.15,9.15,0,0,0,5-1.19,7.69,7.69,0,0,0,2.84-3.39,20.47,20.47,0,0,0,1.47-5.19c.51-3.13.37-5.51-.4-7.14s-2.73-2.44-5.87-2.44h-8.48Z"/><path class="cls-1" d="M2208,681.11l8-49.44h10.19a13.46,13.46,0,0,1,5.5.94,6.47,6.47,0,0,1,3,2.66,9.21,9.21,0,0,1,1.14,3.93,20.88,20.88,0,0,1-.26,4.79,22.32,22.32,0,0,1-1.13,4.19,12.28,12.28,0,0,1-2.31,3.93,7.48,7.48,0,0,1-4,2.32,6.43,6.43,0,0,1,3.9,2.93,10.37,10.37,0,0,1,1.27,4.61,24.05,24.05,0,0,1-.24,4.73,39,39,0,0,1-1.27,5.37,15.68,15.68,0,0,1-2.3,4.61,10.64,10.64,0,0,1-3.84,3.24,13.26,13.26,0,0,1-6,1.19Zm3.72-2.63h7.93q4.89,0,7-2.87c1.42-1.91,2.46-4.86,3.1-8.85a19,19,0,0,0,.17-5.43,6.54,6.54,0,0,0-1.75-3.91,6,6,0,0,0-4.43-1.46h-8.42Zm4.05-25.15h8.36a7.05,7.05,0,0,0,4.42-1.28,8.4,8.4,0,0,0,2.59-3.38,19.35,19.35,0,0,0,1.33-4.68,17,17,0,0,0,.13-4.94,5,5,0,0,0-2-3.45q-1.73-1.25-5.63-1.25h-6.11Z"/><path class="cls-1" d="M2244.91,681.11l18.33-49.44h3.85l2.48,49.44h-3.36l-.36-13.68H2253l-4.82,13.68Zm9-16.12h11.9l-1.26-29.3Z"/><path class="cls-1" d="M2285.86,681.11l8-49.44h10.81q4.93,0,7.38,1.89a8,8,0,0,1,3,5.13,21.54,21.54,0,0,1-.06,7.2l-3.3,20.51a26.78,26.78,0,0,1-2.31,7.53,13,13,0,0,1-4.6,5.25,14.15,14.15,0,0,1-7.79,1.93Zm3.72-2.63h7.63a9.11,9.11,0,0,0,9.55-6.25,32.3,32.3,0,0,0,1.61-6.2l3.2-19.9a23.21,23.21,0,0,0,.28-6.25,5.83,5.83,0,0,0-2.09-4.09q-1.78-1.44-5.57-1.44h-7.5Z"/><path class="cls-1" d="M2326.58,681.11l9.42-49.44h3.3l3.25,44.61,17.8-44.61h3.42l-6.55,49.44h-2.87l5.45-41.45-16.75,41.45h-2.44l-3.28-41.39-7.89,41.39Z"/><path class="cls-1" d="M2375.58,681.11l8-49.44h3.3l-8,49.44Z"/><path class="cls-1" d="M2397.86,681.11l8-49.44h2.63l10.06,41.74,6.72-41.74h2.93l-8,49.44h-2.62l-10.06-41.81-6.73,41.81Z"/><path class="cls-1" d="M2445.6,681.11l7.52-46.76h-9.88l.43-2.68h22.82l-.43,2.68h-9.64l-7.53,46.76Z"/><path class="cls-1" d="M2485.16,681.78q-4.83,0-7.17-1.93a8.1,8.1,0,0,1-2.85-5.25,24.75,24.75,0,0,1,.18-7.53l3.48-21.61a25.33,25.33,0,0,1,2.3-7.45,12.31,12.31,0,0,1,4.57-5.06,14.28,14.28,0,0,1,7.64-1.83c3.14,0,5.49.61,7.07,1.83a7.89,7.89,0,0,1,2.93,5.06,22.06,22.06,0,0,1-.1,7.45l-3.49,21.67a27.59,27.59,0,0,1-2.24,7.5,12.51,12.51,0,0,1-4.53,5.22A14.07,14.07,0,0,1,2485.16,681.78Zm.44-2.75a10.31,10.31,0,0,0,5.69-1.4,9,9,0,0,0,3.29-3.94,23.39,23.39,0,0,0,1.68-5.89l3.67-22.83a20.52,20.52,0,0,0,.22-5.86,5.75,5.75,0,0,0-2-3.87q-1.68-1.38-5.28-1.38a10.36,10.36,0,0,0-5.68,1.38,8.74,8.74,0,0,0-3.28,3.87,22.91,22.91,0,0,0-1.68,5.86l-3.67,22.83a21.08,21.08,0,0,0-.22,5.89,5.88,5.88,0,0,0,2,3.94A8.16,8.16,0,0,0,2485.6,679Z"/><path class="cls-1" d="M2515.36,681.11l8-49.44h2.62L2536,673.41l6.72-41.74h2.93l-8,49.44h-2.62L2525,639.3l-6.73,41.81Z"/><path class="cls-1" d="M2577.86,681.11l8-49.44h11.6q4.45,0,6.68,1.67a7.14,7.14,0,0,1,2.78,4.55,18.86,18.86,0,0,1,0,6.53,22,22,0,0,1-2,6.29,12,12,0,0,1-11.5,6.77H2585l-3.8,23.63Zm7.51-26.19H2593a11.22,11.22,0,0,0,5.08-1,8.11,8.11,0,0,0,3.41-3.32,18.36,18.36,0,0,0,1.93-6.14,17.73,17.73,0,0,0,.15-6.19,4.37,4.37,0,0,0-2.25-3.12,11.15,11.15,0,0,0-4.93-.88h-7.69Z"/><path class="cls-1" d="M2617.23,681.11l8-49.44h3.29L2621,678.48h15l-.42,2.63Z"/><path class="cls-1" d="M2647.14,681.11l18.33-49.44h3.84l2.48,49.44h-3.35l-.37-13.68h-12.81l-4.83,13.68Zm9-16.12H2668l-1.26-29.3Z"/><path class="cls-1" d="M2693.82,681.11l2.55-15.81-6-33.63h3.42l4.93,29.66,14-29.66h3.42l-16.46,33.63-2.55,15.81Z"/><path class="cls-1" d="M2723.67,681.11l8-49.44h17.09l-.43,2.68h-13.73l-3.2,19.84h11.3l-.42,2.56H2731l-3.5,21.73h13.92l-.42,2.63Z"/><path class="cls-1" d="M2757.49,681.11l8-49.44h12c2.93,0,5.09.53,6.49,1.61a6.66,6.66,0,0,1,2.52,4.4,19.65,19.65,0,0,1-.11,6.19,25.4,25.4,0,0,1-1.42,5.25,11.68,11.68,0,0,1-2.82,4.24,9,9,0,0,1-4.91,2.23l3.83,25.52h-3.3L2774,656.2h-9.22l-4,24.91Zm7.72-27.47h8.54a9.21,9.21,0,0,0,5-1.19,7.67,7.67,0,0,0,2.83-3.39,20.47,20.47,0,0,0,1.47-5.19q.76-4.7-.4-7.14t-5.86-2.44h-8.49Z"/><path class="cls-1" d="M2808.05,681.72a10.59,10.59,0,0,1-6.18-1.59,8,8,0,0,1-3.13-4.46,18.34,18.34,0,0,1-.53-6.77l3-.92a26.78,26.78,0,0,0,.38,5.74,6.56,6.56,0,0,0,2.1,3.88,7.32,7.32,0,0,0,4.84,1.37,9.74,9.74,0,0,0,6.07-1.83q2.4-1.83,3.09-6.11a9.52,9.52,0,0,0-.75-5.82,26.38,26.38,0,0,0-3.83-5.59l-7.59-9A13.22,13.22,0,0,1,2803,646a10.76,10.76,0,0,1-.28-4.76,11.27,11.27,0,0,1,4.24-7.51,13.19,13.19,0,0,1,8.26-2.62,13.75,13.75,0,0,1,4.41.64,7.14,7.14,0,0,1,3.18,2.07,8,8,0,0,1,1.73,3.82,20.75,20.75,0,0,1,.16,5.86l-2.92.67a18.39,18.39,0,0,0-.22-5.8,5.64,5.64,0,0,0-2.13-3.45,7.88,7.88,0,0,0-4.58-1.13,10.27,10.27,0,0,0-5.89,1.71,7.7,7.7,0,0,0-3.14,5.49,8.53,8.53,0,0,0,.17,3.67,10.47,10.47,0,0,0,2.22,3.84l7.49,8.79a29.5,29.5,0,0,1,4.16,6.26,12,12,0,0,1,1,7.29,13.71,13.71,0,0,1-2.4,6.13,10.84,10.84,0,0,1-4.48,3.58A14.82,14.82,0,0,1,2808.05,681.72Z"/><path class="cls-1" d="M1146.18,504.51H1033.92l-18,84.72h112.12a14.12,14.12,0,0,0,10.1-4.29,13.85,13.85,0,0,0,4.57-9.83V552.82a29,29,0,0,1,2.55-11.76l9.47-22.43a12.33,12.33,0,0,0,1-4.84,8.86,8.86,0,0,0-2.7-6.64A9.39,9.39,0,0,0,1146.18,504.51Zm-92.74,67.69,10.79-50.66h55.38s-15.5,23-39.11,23c0,0,28.31,7.73,28.31,27.67Zm233.24-67.69h-98.42a17,17,0,0,0-11.07,4.23,17.6,17.6,0,0,0-6.37,10.17l-15,70.32h33.91l5.4-25.33h59.39l-5.4,25.33h33.91l15-70.32a17.37,17.37,0,0,0,.28-3,11,11,0,0,0-3.26-8.1A11.33,11.33,0,0,0,1286.68,504.51Zm-28.52,42.36h-59.38l5.4-25.33h59.38Zm165.14-42.36H1319.07l-18,84.72h104.23a17.08,17.08,0,0,0,11.07-4.22,18.36,18.36,0,0,0,6.51-10.18l11.76-55.92a11.37,11.37,0,0,0,.42-3,11,11,0,0,0-3.25-8.1A11.53,11.53,0,0,0,1423.3,504.51Zm-33.91,67.83h-50.8l10.79-50.94h50.95Zm203.89-64.57a10.87,10.87,0,0,1,3.33,8.1,11.37,11.37,0,0,1-.42,3l-15,70.32h-33.91l14.39-67.69h-25.33l-14.53,67.69h-25.34l14.39-67.69h-25.47l-14.39,67.69h-33.91l14.95-70.32a17.6,17.6,0,0,1,6.37-10.17,17.05,17.05,0,0,1,11.07-4.23h115.31A11.56,11.56,0,0,1,1593.28,507.77Zm24.78-3.26H1652l-18,84.72h-33.91Zm141.88,0h33.92l-15,70.32A17.67,17.67,0,0,1,1772.5,585a17.15,17.15,0,0,1-11.09,4.22h-16.23q-12.06,0-17.61-9.21l-28.7-49-12.31,58.18h-33.9l14.95-70.32a17.7,17.7,0,0,1,6.37-10.17,17.08,17.08,0,0,1,11.08-4.23h16.33q11.91,0,17.44,9.42l28.79,48.86Zm160.85,17h-42.5l-14.39,67.69H1830l14.4-67.69H1802l3.6-17h118.76Zm118.9-17h-89.83a17.06,17.06,0,0,0-11.08,4.23,17.63,17.63,0,0,0-6.36,10.17l-11.91,55.92a16.56,16.56,0,0,0-.28,3,11,11,0,0,0,3.26,8.17,11.46,11.46,0,0,0,8.37,3.18h89.84a17.1,17.1,0,0,0,11.07-4.22,18.47,18.47,0,0,0,6.51-10.18L2051,518.91a11.37,11.37,0,0,0,.42-3,11,11,0,0,0-3.26-8.1A11.49,11.49,0,0,0,2039.69,504.51Zm-33.91,67.69H1955l10.79-50.66h50.94Zm155-67.69h33.91l-15,70.32a17.67,17.67,0,0,1-6.38,10.18,17.15,17.15,0,0,1-11.09,4.22h-16.23q-12.06,0-17.61-9.21l-28.7-49-12.31,58.18h-33.9l14.95-70.32a17.6,17.6,0,0,1,6.37-10.17,17.05,17.05,0,0,1,11.07-4.23h16.34q11.89,0,17.44,9.42l28.79,48.86Zm231.3,0H2426l-15,70.32a17.7,17.7,0,0,1-6.37,10.18,17.12,17.12,0,0,1-11.08,4.22h-115.3A11.31,11.31,0,0,1,2270,586a11,11,0,0,1-3.26-8.1,16.56,16.56,0,0,1,.28-3l14.95-70.32h33.91l-14.39,67.69h25.47l14.39-67.69h25.47l-14.53,67.69h25.47Zm81.53,17-3.6,16.75h76.27l-3.6,17h-76.27l-3.6,16.88h84.72l-3.6,17H2439.73a11.33,11.33,0,0,1-8.38-3.25,11,11,0,0,1-3.25-8.1,16.56,16.56,0,0,1,.28-3l11.9-55.92a17.6,17.6,0,0,1,6.37-10.17,17,17,0,0,1,11.07-4.23h104.37l-3.6,17Zm216.49-17h-98.41a17.06,17.06,0,0,0-11.08,4.23,17.63,17.63,0,0,0-6.36,10.17l-15,70.32h33.92l5.4-25.33H2658l-5.4,25.33h33.91l15-70.32a17.35,17.35,0,0,0,.27-3,11,11,0,0,0-3.25-8.1A11.34,11.34,0,0,0,2690.13,504.51Zm-28.51,42.36h-59.38l5.39-25.33H2667Zm168-18.32-44.29,43.65h40.69l-3.6,17h-51.63q-6.23,0-9.83-3.89a14,14,0,0,1-3.6-9.87q0-9.59,7.63-17.24l37.87-36.69h-50.84l-14.38,67.69h-33.84l14.95-70.32a17.63,17.63,0,0,1,6.36-10.17,17.08,17.08,0,0,1,11.08-4.23H2824a11,11,0,0,1,8.23,3.18,11.15,11.15,0,0,1,3.12,8.15Q2835.34,522.89,2829.66,528.55Z"/><path class="cls-1" d="M219.3,612.82a474.19,474.19,0,0,1-37.67-66.5,400.51,400.51,0,0,1-25.33-70.16l-2.25-8.92-1.86-9c-1.41-5.95-2.17-12-3.25-18-.27-1.49-.42-3-.6-4.5l-.56-4.5-.56-4.48-.3-2.26-.16-2.24c-.44-6-1.06-12-1.15-18-.68-12,0-23.86.65-35.67l.93-8.82.46-4.4c.16-1.46.44-2.92.66-4.37l1.31-8.73c.47-2.89,1.15-5.76,1.71-8.64,1-5.77,2.68-11.42,4-17.1l.53-2.12.65-2.1,1.29-4.19c.89-2.8,1.64-5.62,2.65-8.36l3-8.24c.52-1.38,1-2.76,1.51-4.12l1.72-4c.49-1.11,1-2.24,1.45-3.36-11-44.65-18.3-82.58-23.19-113l-.09.09c-2.3,3-4.5,6-6.74,9.08s-4.48,6-6.64,9.13l-6.12,9.51-3,4.77c-1,1.6-2.07,3.16-2.95,4.84L114,214.33l-2.73,5c-.45.82-.93,1.64-1.35,2.47l-1.21,2.56-4.82,10.25c-3.35,6.75-5.87,13.87-8.66,20.87l-2,5.26c-.67,1.75-1.2,3.56-1.8,5.35l-3.43,10.76c-1.14,3.57-2,7.26-3,10.88l-1.43,5.46-.71,2.72-.58,2.77c-1.53,7.36-3.15,14.7-4.11,22.16-2.49,14.8-3.35,29.8-3.81,44.7l.1,11.17.08,5.58c.07,1.86.22,3.72.32,5.57l.72,11.11c.3,3.69.79,7.36,1.19,11,.69,7.37,2.09,14.6,3.26,21.87l.46,2.72.58,2.7,1.15,5.38c.81,3.58,1.48,7.19,2.44,10.73,1.94,7,3.63,14.16,6,21.07l3.34,10.38L97.71,495c2.4,6.86,5.4,13.42,8.21,20.06,1.39,3.34,3,6.54,4.56,9.78s3,6.52,4.72,9.68l5.09,9.47,2.54,4.72,2.72,4.6,5.45,9.19c1.85,3.06,3.86,6,5.78,9a427.89,427.89,0,0,0,52.87,65.67,457.16,457.16,0,0,0,63.25,53.63,421.31,421.31,0,0,0,70.92,40.51,783.35,783.35,0,0,1-56.48-56.79A588.06,588.06,0,0,1,219.3,612.82Z"/><path class="cls-1" d="M963.4,298.65c-100.57-55-156.58-64.08-187.93-57,46.43-36.59,113-68.9,113-68.9-.42-.11-.86-.23-1.27-.36a326.77,326.77,0,0,0-277,46.4C501.91,294.46,381.36,443.13,439.83,717.67c.58-2.38,70.41-274.62,523.59-419Z"/><path class="cls-1" d="M366.22,718c-1.45-4.61-141.59-401.37,235.54-576.78l31.4-13s-196.34-11.39-328,134.33c-.24-1.64-7.35-54.4,7-109.68a215.26,215.26,0,0,1,9.11-27.57c1.31-.67,2.64-1.31,4-1.94,43.88-21.08,92.27-34.44,142.14-41a595.91,595.91,0,0,1,152.94.23c3.23.4,6.49.65,9.69,1.18l9.65,1.51,9.68,1.5c1.63.22,3.21.57,4.81.88l4.82.9,9.67,1.8,4.86.9c1.6.32,3.2.73,4.81,1.08,6.39,1.5,12.85,2.88,19.31,4.28,25.72,6.19,51.29,13.85,77,22.54-43.21-32.81-93.1-57.24-145.86-74.22A509.39,509.39,0,0,0,463,20.75c-53.46,1.07-107.54,10.84-158.71,30.82q-4.68,1.82-9.31,3.76A400.46,400.46,0,0,0,244.05,81Q230.68,88.9,217.9,98L209,104.6l-4.48,3.33-4.3,3.55c-5.7,4.79-11.58,9.34-17,14.56h0c1.75,20.35,5.67,54.66,14.53,101.31C214,313,246.77,440.25,313,599.14Q336.62,655.95,366.22,718Z"/><path class="cls-1" d="M408.06,811.75c35.23-.57,63.3-31.39,62.7-68.85L343.19,745C343.79,782.41,372.84,812.31,408.06,811.75Z"/></svg>