<?xml version="1.0" encoding="UTF-8" standalone="no"?>
<svg
   id="Layer_1"
   data-name="Layer 1"
   viewBox="0 0 2934.52 1100"
   version="1.1"
   width="2934.52"
   height="1100"
   xml:space="preserve"
   xmlns="http://www.w3.org/2000/svg"
   xmlns:svg="http://www.w3.org/2000/svg"><defs
     id="defs9" /><path
     d="m 1431,296.31 h -291.86 l -12.38,57.61 h 262.37 l -12.38,58.57 h -262.37 l -24.76,116.66 H 973 l 51.43,-241.89 q 4.27,-20.46 21.9,-35 17.63,-14.54 38.09,-14.52 h 359 z"
     id="path1" /><path
     d="m 1805.76,529.15 h -329.5 q -17.62,0 -28.81,-11.19 -11.19,-11.19 -11.19,-27.86 a 57.93,57.93 0 0 1 1,-10.47 l 51.42,-241.89 h 116.62 l -49.52,232.84 h 262.36 z"
     id="path2" /><path
     d="m 2262.87,479.63 q -4.76,20.47 -22.38,35 -17.62,14.53 -38.09,14.53 h -309 q -17.61,0 -28.8,-10.95 -11.19,-10.95 -11.19,-28.1 a 57.92,57.92 0 0 1 0.95,-10.47 l 41,-192.37 q 4.28,-20.46 21.9,-35 17.62,-14.54 38.09,-14.52 h 309 q 18.09,0 29.28,11.19 11.19,11.19 11.2,27.85 a 39.74,39.74 0 0 1 -1.43,10.48 z m -115.23,-9.05 37.62,-174.27 H 2010 l -37.14,174.27 z"
     id="path3" /><path
     d="m 2818.07,479.63 q -4.28,20.47 -21.9,35 -17.62,14.53 -38.09,14.53 h -396.64 q -17.62,0 -28.81,-11.19 -11.19,-11.19 -11.19,-27.86 a 57.92,57.92 0 0 1 0.95,-10.47 l 51.43,-241.89 h 116.65 L 2441,470.58 h 87.61 l 49.51,-232.84 h 87.63 l -50,232.84 h 87.62 l 49.52,-232.84 h 116.61 z"
     id="path4" /><path
     d="M 1085,593.33 H 972.21 l -18.08,85.12 h 112.66 a 14.21,14.21 0 0 0 10.15,-4.31 13.9,13.9 0 0 0 4.59,-9.88 v -22.39 a 29.12,29.12 0 0 1 2.56,-11.82 l 9.52,-22.54 a 12.44,12.44 0 0 0 1,-4.86 8.93,8.93 0 0 0 -2.72,-6.68 9.44,9.44 0 0 0 -6.89,-2.64 z m -93.19,68 10.85,-50.9 h 55.64 c 0,0 -15.58,23.1 -39.3,23.1 0,0 28.44,7.76 28.44,27.8 z m 234.36,-68 h -98.89 a 17.15,17.15 0 0 0 -11.13,4.24 17.73,17.73 0 0 0 -6.39,10.22 l -15,70.66 h 34.08 l 5.42,-25.45 h 59.67 l -5.42,25.45 h 34.08 l 15,-70.66 a 17.59,17.59 0 0 0 0.28,-3.06 11.08,11.08 0 0 0 -3.27,-8.13 11.4,11.4 0 0 0 -8.42,-3.27 z m -28.65,42.56 h -59.67 l 5.42,-25.45 H 1203 Z m 165.93,-42.56 h -104.72 l -18.08,85.12 h 104.73 a 17.15,17.15 0 0 0 11.13,-4.24 A 18.42,18.42 0 0 0 1363,664 l 11.83,-56.19 a 11.92,11.92 0 0 0 0.41,-3.06 11.07,11.07 0 0 0 -3.26,-8.13 11.59,11.59 0 0 0 -8.52,-3.29 z m -34.07,68.15 h -51.05 l 10.85,-51.18 h 51.18 z m 204.87,-64.88 a 10.94,10.94 0 0 1 3.34,8.13 11.51,11.51 0 0 1 -0.42,3.06 l -15,70.66 h -34.08 l 14.47,-68 h -25.46 l -14.6,68 H 1437 l 14.47,-68 h -25.57 l -14.46,68 h -34.07 l 15,-70.66 a 17.73,17.73 0 0 1 6.39,-10.22 17.18,17.18 0 0 1 11.13,-4.24 h 115.86 a 11.64,11.64 0 0 1 8.51,3.27 z m 24.89,-3.27 h 34.08 l -18.08,85.12 h -34.08 z m 142.57,0 h 34.07 l -15,70.65 a 17.7,17.7 0 0 1 -6.41,10.23 17.19,17.19 0 0 1 -11.14,4.24 h -16.31 q -12.12,0 -17.69,-9.25 L 1640.35,620 1628,678.45 h -34.06 l 15,-70.66 a 17.79,17.79 0 0 1 6.4,-10.22 17.15,17.15 0 0 1 11.13,-4.24 h 16.41 q 12,0 17.53,9.46 l 28.93,49.09 z m 161.61,17.11 h -42.7 l -14.46,68 h -34.08 l 14.47,-68 H 1744 l 3.61,-17.11 H 1867 Z m 119.48,-17.11 h -90.27 a 17.15,17.15 0 0 0 -11.13,4.24 17.73,17.73 0 0 0 -6.39,10.22 l -12,56.19 a 17.66,17.66 0 0 0 -0.27,3.06 11,11 0 0 0 3.27,8.21 11.51,11.51 0 0 0 8.41,3.2 h 90.27 a 17.14,17.14 0 0 0 11.12,-4.24 18.5,18.5 0 0 0 6.54,-10.23 l 11.82,-56.19 a 11.51,11.51 0 0 0 0.42,-3.06 11,11 0 0 0 -3.27,-8.13 11.56,11.56 0 0 0 -8.51,-3.27 z m -34.08,68 h -51 l 10.85,-50.9 h 51.18 z m 155.78,-68 h 34.07 l -15,70.65 a 17.77,17.77 0 0 1 -6.42,10.23 17.17,17.17 0 0 1 -11.14,4.24 h -16.3 q -12.12,0 -17.7,-9.25 l -28.86,-49.2 -12.38,58.46 h -34.06 l 15,-70.66 a 17.73,17.73 0 0 1 6.39,-10.22 17.15,17.15 0 0 1 11.13,-4.24 h 16.41 q 12,0 17.53,9.46 l 28.93,49.09 z m 232.41,0 H 2371 L 2356,664 a 17.72,17.72 0 0 1 -6.39,10.23 17.15,17.15 0 0 1 -11.13,4.24 h -115.89 a 11.36,11.36 0 0 1 -8.41,-3.27 11,11 0 0 1 -3.27,-8.14 17.66,17.66 0 0 1 0.27,-3.06 l 15,-70.65 h 34.07 l -14.46,68 h 25.59 l 14.46,-68 h 25.6 l -14.61,68 h 25.6 z m 81.92,17.11 -3.62,16.83 h 76.64 l -3.62,17.1 h -76.63 l -3.62,17 h 85.12 l -3.61,17.11 h -104.73 a 11.38,11.38 0 0 1 -8.41,-3.27 11,11 0 0 1 -3.27,-8.14 16.75,16.75 0 0 1 0.28,-3.06 l 12,-56.19 a 17.79,17.79 0 0 1 6.4,-10.22 17.15,17.15 0 0 1 11.13,-4.24 h 104.87 l -3.62,17.11 z m 217.53,-17.11 h -98.89 a 17.15,17.15 0 0 0 -11.13,4.24 17.73,17.73 0 0 0 -6.39,10.22 l -15,70.66 H 2539 l 5.42,-25.45 h 59.67 l -5.42,25.45 h 34.08 l 15,-70.66 a 17.59,17.59 0 0 0 0.28,-3.06 11.08,11.08 0 0 0 -3.27,-8.13 11.4,11.4 0 0 0 -8.39,-3.27 z m -28.65,42.56 h -59.67 l 5.43,-25.45 h 59.66 z m 168.85,-18.41 -44.51,43.86 H 2773 l -3.61,17.11 h -51.88 q -6.27,0 -9.88,-3.91 a 14,14 0 0 1 -3.61,-9.92 q 0,-9.63 7.66,-17.32 l 38,-36.86 h -51.09 l -14.44,68 h -34 l 15,-70.66 a 17.79,17.79 0 0 1 6.4,-10.22 17.15,17.15 0 0 1 11.13,-4.24 h 88.18 a 11.05,11.05 0 0 1 8.27,3.19 11.2,11.2 0 0 1 3.13,8.19 q 0.01,7.09 -5.69,12.78 z"
     id="path5" /><path
     d="M 210,610.52 A 474.83,474.83 0 0 1 172.34,544 399.66,399.66 0 0 1 147,473.86 l -2.26,-8.92 -1.86,-9 c -1.41,-5.95 -2.17,-12 -3.25,-18 -0.27,-1.49 -0.42,-3 -0.6,-4.5 l -0.56,-4.5 -0.56,-4.48 -0.29,-2.26 -0.17,-2.24 c -0.44,-6 -1.06,-12 -1.15,-18 -0.68,-12 0,-23.87 0.65,-35.67 l 0.93,-8.82 0.46,-4.4 c 0.16,-1.46 0.44,-2.92 0.66,-4.37 l 1.31,-8.73 c 0.47,-2.89 1.15,-5.76 1.71,-8.64 1,-5.77 2.69,-11.42 4.05,-17.1 l 0.53,-2.12 0.65,-2.1 1.29,-4.19 c 0.9,-2.8 1.64,-5.62 2.65,-8.37 l 3,-8.23 c 0.52,-1.38 1,-2.77 1.51,-4.12 l 1.72,-4 c 0.49,-1.11 1,-2.24 1.45,-3.36 -11,-44.65 -18.3,-82.58 -23.19,-113 l -0.09,0.09 c -2.3,3 -4.5,6.05 -6.74,9.08 -2.24,3.03 -4.48,6 -6.64,9.13 l -6.12,9.51 -3,4.77 c -1,1.6 -2.07,3.16 -3,4.84 l -5.42,9.84 -2.73,5 c -0.45,0.82 -0.93,1.64 -1.35,2.47 l -1.21,2.53 -4.82,10.26 c -3.35,6.75 -5.87,13.87 -8.65,20.87 l -2,5.26 c -0.67,1.75 -1.21,3.56 -1.81,5.34 l -3.43,10.77 c -1.14,3.57 -2,7.26 -3,10.88 l -1.43,5.46 -0.71,2.72 -0.58,2.77 c -1.53,7.36 -3.15,14.7 -4.11,22.16 -2.49,14.8 -3.35,29.8 -3.8,44.7 l 0.09,11.17 0.07,5.64 c 0.07,1.86 0.22,3.71 0.32,5.57 l 0.72,11.11 c 0.3,3.69 0.79,7.36 1.19,11 0.69,7.38 2.09,14.61 3.26,21.88 l 0.46,2.72 0.58,2.7 1.15,5.37 c 0.81,3.59 1.48,7.2 2.44,10.73 2,7.05 3.63,14.16 6,21.08 l 3.34,10.38 3.8,10.18 c 2.4,6.86 5.4,13.42 8.21,20.06 1.39,3.34 3.05,6.53 4.56,9.78 1.51,3.25 3,6.52 4.72,9.68 l 5.1,9.47 2.53,4.72 2.72,4.6 5.45,9.19 c 1.85,3 3.86,6 5.78,9 a 427.89,427.89 0 0 0 52.87,65.67 456.39,456.39 0 0 0 63.25,53.62 A 421.36,421.36 0 0 0 314.53,729 783.35,783.35 0 0 1 258.05,672.21 587.66,587.66 0 0 1 210,610.52 Z"
     id="path6" /><path
     d="m 954.11,296.35 c -100.57,-55 -156.58,-64.08 -187.93,-57 46.43,-36.59 113,-68.9 113,-68.9 -0.42,-0.11 -0.86,-0.23 -1.27,-0.36 a 326.8,326.8 0 0 0 -277,46.39 c -108.29,75.68 -228.84,224.35 -170.37,498.88 0.58,-2.37 70.41,-274.61 523.59,-419 z"
     id="path7" /><path
     d="M 356.93,715.73 C 355.48,711.11 215.34,314.36 592.47,139 l 31.4,-13 c 0,0 -196.33,-11.39 -328,134.33 -0.24,-1.64 -7.35,-54.4 7,-109.68 A 215.91,215.91 0 0 1 312,123 c 1.31,-0.66 2.64,-1.3 4,-1.94 43.88,-21.07 92.27,-34.43 142.14,-41 a 595.91,595.91 0 0 1 152.94,0.23 c 3.23,0.4 6.49,0.65 9.69,1.18 l 9.65,1.53 9.68,1.5 c 1.63,0.22 3.21,0.57 4.81,0.87 l 4.82,0.91 9.67,1.8 4.86,0.9 c 1.61,0.32 3.21,0.73 4.81,1.08 6.39,1.5 12.85,2.88 19.32,4.28 25.71,6.19 51.28,13.85 76.94,22.54 C 722.12,84.07 672.23,59.64 619.47,42.66 A 509.39,509.39 0 0 0 453.66,18.45 C 400.2,19.52 346.12,29.29 295,49.27 q -4.68,1.81 -9.31,3.76 a 401.71,401.71 0 0 0 -50.88,25.62 q -13.37,7.95 -26.15,17 l -8.94,6.61 -4.48,3.33 -4.3,3.55 c -5.7,4.79 -11.58,9.33 -16.95,14.56 v 0 c 1.75,20.35 5.67,54.66 14.53,101.31 16.23,85.65 49,212.9 115.22,371.79 q 23.59,56.85 53.19,118.93 z"
     id="path8" /><path
     d="m 398.77,809.45 c 35.23,-0.57 63.3,-31.39 62.7,-68.85 l -127.57,2 c 0.6,37.5 29.65,67.4 64.87,66.85 z"
     id="path9" /><text
     xml:space="preserve"
     style="font-size:213.588px;font-family:Oswald;-inkscape-font-specification:'Oswald, Normal';fill:#000000"
     x="1406.2234"
     y="1036.7197"
     id="text9"><tspan
       id="tspan9"
       x="1406.2234"
       y="1036.7197"
       style="font-weight:normal">M</tspan></text></svg>
