<?xml version="1.0" encoding="UTF-8" standalone="no"?>
<svg
   id="Layer_1"
   data-name="Layer 1"
   viewBox="0 0 3000 1200"
   version="1.1"
   sodipodi:docname="3l1 copy 2.svg"
   width="3000"
   height="1200"
   xmlns:inkscape="http://www.inkscape.org/namespaces/inkscape"
   xmlns:sodipodi="http://sodipodi.sourceforge.net/DTD/sodipodi-0.dtd"
   xmlns="http://www.w3.org/2000/svg"
   xmlns:svg="http://www.w3.org/2000/svg">
  <defs
     id="defs54" />
  <sodipodi:namedview
     id="namedview54"
     pagecolor="#ffffff"
     bordercolor="#000000"
     borderopacity="0.25"
     inkscape:showpageshadow="2"
     inkscape:pageopacity="0.0"
     inkscape:pagecheckerboard="0"
     inkscape:deskcolor="#d1d1d1">
    <inkscape:page
       x="0"
       y="0"
       width="3000"
       height="1200"
       id="page54"
       margin="0"
       bleed="0"
       inkscape:export-filename="Inner Neck Label Regular.png"
       inkscape:export-xdpi="96"
       inkscape:export-ydpi="96" />
    <inkscape:page
       x="1648.9091"
       y="1385.2206"
       width="10.273577"
       height="8.5613136"
       id="page55"
       margin="0"
       bleed="0" />
  </sodipodi:namedview>
  <path
     d="m 1490.55,208.91 h -290.5 l -12.32,57.34 h 261.12 l -12.32,58.29 h -261.12 l -24.64,116.1 h -116.1 l 51.18,-240.73 q 4.26,-20.37 21.8,-34.83 17.54,-14.46 37.91,-14.46 h 357.31 z"
     id="path1" />
  <path
     d="m 1863.49,440.64 h -327.93 q -17.54,0 -28.67,-11.14 -11.13,-11.14 -11.13,-27.72 a 57.46,57.46 0 0 1 1,-10.42 l 51.18,-240.74 H 1664 l -49.3,231.73 h 261.11 z"
     id="path2" />
  <path
     d="m 2318.42,391.36 q -4.74,20.37 -22.27,34.83 -17.53,14.46 -37.92,14.45 h -307.54 q -17.55,0 -28.67,-10.9 -11.12,-10.9 -11.14,-28 a 57.46,57.46 0 0 1 0.95,-10.42 l 40.75,-191.45 q 4.26,-20.37 21.8,-34.83 17.54,-14.46 37.91,-14.46 h 307.55 q 18,0 29.14,11.14 11.14,11.14 11.14,27.72 a 39.41,39.41 0 0 1 -1.42,10.43 z m -114.68,-9 37.44,-173.44 h -174.39 l -37,173.44 z"
     id="path3" />
  <path
     d="m 2871,391.36 q -4.28,20.37 -21.8,34.83 -17.52,14.46 -37.91,14.45 h -394.78 q -17.53,0 -28.67,-11.14 -11.14,-11.14 -11.14,-27.72 a 58.37,58.37 0 0 1 1,-10.42 l 51.18,-240.74 h 116.1 l -49.28,231.73 h 87.19 l 49.28,-231.73 h 87.21 l -49.77,231.73 h 87.2 L 2806,150.62 h 116.11 z"
     id="path4" />
  <path
     d="m 1010.51,681.11 8,-49.44 h 10.8 q 5,0 7.38,1.89 a 8,8 0 0 1 3,5.13 21.28,21.28 0 0 1 -0.06,7.2 l -3.3,20.51 a 26.46,26.46 0 0 1 -2.31,7.53 12.91,12.91 0 0 1 -4.6,5.25 14.13,14.13 0 0 1 -7.79,1.93 z m 3.72,-2.63 h 7.63 a 9.11,9.11 0 0 0 9.55,-6.25 31.58,31.58 0 0 0 1.59,-6.23 l 3.21,-19.9 a 23.16,23.16 0 0 0 0.27,-6.25 5.83,5.83 0 0 0 -2.09,-4.09 c -1.18,-1 -3,-1.44 -5.56,-1.44 h -7.51 z"
     id="path5" />
  <path
     d="m 1051.78,681.11 8,-49.44 h 17.09 l -0.44,2.68 h -13.73 l -3.19,19.84 h 11.29 l -0.41,2.56 h -11.29 l -3.5,21.73 h 13.91 l -0.42,2.63 z"
     id="path6" />
  <path
     d="m 1095.38,681.72 a 10.65,10.65 0 0 1 -6.19,-1.59 8,8 0 0 1 -3.12,-4.46 18.34,18.34 0 0 1 -0.53,-6.77 l 3,-0.92 a 26.15,26.15 0 0 0 0.38,5.74 6.55,6.55 0 0 0 2.09,3.88 7.37,7.37 0 0 0 4.85,1.37 9.71,9.71 0 0 0 6.06,-1.83 q 2.4,-1.83 3.09,-6.11 a 9.52,9.52 0 0 0 -0.74,-5.82 26.76,26.76 0 0 0 -3.83,-5.59 l -7.59,-9 a 13.42,13.42 0 0 1 -2.55,-4.64 10.9,10.9 0 0 1 -0.27,-4.76 11.3,11.3 0 0 1 4.23,-7.51 13.24,13.24 0 0 1 8.27,-2.62 13.75,13.75 0 0 1 4.41,0.64 7.14,7.14 0 0 1 3.18,2.07 8,8 0 0 1 1.73,3.82 20.75,20.75 0 0 1 0.16,5.86 l -2.92,0.67 a 18.69,18.69 0 0 0 -0.22,-5.8 5.68,5.68 0 0 0 -2.13,-3.45 7.88,7.88 0 0 0 -4.58,-1.13 10.27,10.27 0 0 0 -5.89,1.71 7.74,7.74 0 0 0 -3.15,5.49 8.69,8.69 0 0 0 0.18,3.67 10.29,10.29 0 0 0 2.21,3.84 l 7.5,8.79 a 29.08,29.08 0 0 1 4.15,6.26 11.91,11.91 0 0 1 1,7.29 13.71,13.71 0 0 1 -2.4,6.13 10.84,10.84 0 0 1 -4.48,3.58 14.85,14.85 0 0 1 -5.9,1.19 z"
     id="path7" />
  <path
     d="m 1123,681.11 8,-49.44 h 3.3 l -8,49.44 z"
     id="path8" />
  <path
     d="m 1156,681.78 c -3.14,0 -5.45,-0.64 -7,-1.93 a 8.17,8.17 0 0 1 -2.71,-5.34 27.09,27.09 0 0 1 0.24,-7.75 l 3.38,-21 a 28.8,28.8 0 0 1 2.24,-7.62 12,12 0 0 1 4.46,-5.16 14.14,14.14 0 0 1 7.69,-1.86 c 2.89,0 5.06,0.57 6.53,1.7 a 7.62,7.62 0 0 1 2.75,4.89 22.8,22.8 0 0 1 -0.14,7.51 l -0.27,1.7 H 1170 l 0.31,-1.89 a 21.26,21.26 0 0 0 0.25,-6.13 5.53,5.53 0 0 0 -1.9,-3.75 7.43,7.43 0 0 0 -4.79,-1.29 9.79,9.79 0 0 0 -5.74,1.5 9,9 0 0 0 -3.2,4.15 29.14,29.14 0 0 0 -1.63,6.13 l -3.47,21.55 a 22.78,22.78 0 0 0 -0.27,6.25 6.18,6.18 0 0 0 2,4.13 q 1.65,1.45 5.13,1.46 a 8.31,8.31 0 0 0 8.48,-5.43 27.31,27.31 0 0 0 1.7,-6.23 l 1.17,-7.26 h -7.87 l 0.41,-2.56 h 11 l -3.8,23.56 h -2.13 l 0.4,-5.56 a 11.55,11.55 0 0 1 -3.75,4.55 10.66,10.66 0 0 1 -6.3,1.68 z"
     id="path9" />
  <path
     d="m 1186.18,681.11 8,-49.44 h 2.62 l 10.06,41.74 6.73,-41.74 h 2.93 l -8,49.44 h -2.63 l -10.05,-41.81 -6.73,41.81 z"
     id="path10" />
  <path
     d="m 1227.31,681.11 8,-49.44 h 17.09 l -0.43,2.68 h -13.77 l -3.2,19.84 h 11.29 l -0.42,2.56 h -11.29 l -3.5,21.73 H 1245 l -0.42,2.63 z"
     id="path11" />
  <path
     d="m 1261.13,681.11 8,-49.44 h 10.8 q 5,0 7.39,1.89 a 8,8 0 0 1 3,5.13 21.8,21.8 0 0 1 -0.06,7.2 l -3.3,20.51 a 26.79,26.79 0 0 1 -2.32,7.53 12.89,12.89 0 0 1 -4.59,5.25 14.15,14.15 0 0 1 -7.79,1.93 z m 3.72,-2.63 h 7.63 a 9.13,9.13 0 0 0 9.55,-6.25 32.3,32.3 0 0 0 1.61,-6.2 l 3.2,-19.9 a 23.21,23.21 0 0 0 0.28,-6.25 5.87,5.87 0 0 0 -2.09,-4.09 q -1.79,-1.44 -5.57,-1.44 H 1272 Z"
     id="path12" />
  <path
     d="m 1323.75,681.11 8,-49.44 h 10.19 a 13.46,13.46 0 0 1 5.5,0.94 6.47,6.47 0 0 1 3,2.66 9.21,9.21 0 0 1 1.14,3.93 20.88,20.88 0 0 1 -0.26,4.79 22.32,22.32 0 0 1 -1.13,4.19 12.28,12.28 0 0 1 -2.31,3.93 7.49,7.49 0 0 1 -4,2.32 6.46,6.46 0 0 1 3.89,2.93 10.37,10.37 0 0 1 1.23,4.64 24.05,24.05 0 0 1 -0.24,4.73 39,39 0 0 1 -1.27,5.37 15.68,15.68 0 0 1 -2.3,4.61 10.64,10.64 0 0 1 -3.84,3.24 13.23,13.23 0 0 1 -6,1.19 z m 3.72,-2.63 h 7.94 q 4.88,0 7,-2.87 2.12,-2.87 3.1,-8.85 a 19,19 0 0 0 0.17,-5.43 6.48,6.48 0 0 0 -1.75,-3.91 6,6 0 0 0 -4.43,-1.46 h -8.42 z m 4,-25.15 h 8.36 a 7.05,7.05 0 0 0 4.42,-1.28 8.4,8.4 0 0 0 2.59,-3.38 19.81,19.81 0 0 0 1.33,-4.68 17,17 0 0 0 0.13,-4.94 5,5 0 0 0 -2,-3.45 q -1.72,-1.25 -5.63,-1.25 h -6.1 z"
     id="path13" />
  <path
     d="m 1371.36,681.11 2.55,-15.81 -6,-33.63 h 3.41 l 4.93,29.66 14,-29.66 h 3.41 l -16.46,33.63 -2.54,15.81 z"
     id="path14" />
  <path
     d="m 1422.57,681.11 8,-49.44 h 10.19 a 13.46,13.46 0 0 1 5.5,0.94 6.47,6.47 0 0 1 3,2.66 9.21,9.21 0 0 1 1.14,3.93 21.46,21.46 0 0 1 -0.26,4.79 23.11,23.11 0 0 1 -1.13,4.19 12.47,12.47 0 0 1 -2.31,3.93 7.52,7.52 0 0 1 -4,2.32 6.41,6.41 0 0 1 3.89,2.93 10.25,10.25 0 0 1 1.28,4.61 23.28,23.28 0 0 1 -0.25,4.73 37.58,37.58 0 0 1 -1.26,5.37 15.68,15.68 0 0 1 -2.3,4.61 10.59,10.59 0 0 1 -3.85,3.24 13.18,13.18 0 0 1 -6,1.19 z m 3.72,-2.63 h 7.93 c 3.25,0 5.6,-1 7,-2.87 1.4,-1.87 2.46,-4.86 3.11,-8.85 a 19,19 0 0 0 0.17,-5.43 6.6,6.6 0 0 0 -1.75,-3.91 6,6 0 0 0 -4.43,-1.46 h -8.43 z m 4,-25.15 h 8.36 a 7.05,7.05 0 0 0 4.42,-1.28 8.49,8.49 0 0 0 2.59,-3.38 19.81,19.81 0 0 0 1.34,-4.67 16.61,16.61 0 0 0 0.12,-4.94 5,5 0 0 0 -2,-3.45 c -1.14,-0.83 -3,-1.25 -5.62,-1.25 h -6.11 z"
     id="path15" />
  <path
     d="m 1459.5,681.11 18.33,-49.44 h 3.85 l 2.48,49.44 h -3.36 l -0.37,-13.68 h -12.81 l -4.83,13.68 z m 9,-16.12 h 11.9 l -1.26,-29.3 z"
     id="path16" />
  <path
     d="m 1500.45,681.11 8,-49.44 h 10.81 c 3.29,0 5.76,0.63 7.38,1.89 a 8,8 0 0 1 3,5.13 21.54,21.54 0 0 1 -0.06,7.2 l -3.3,20.51 a 26.78,26.78 0 0 1 -2.31,7.53 12.91,12.91 0 0 1 -4.6,5.25 14.15,14.15 0 0 1 -7.79,1.93 z m 3.72,-2.63 h 7.63 a 9.11,9.11 0 0 0 9.55,-6.25 32.3,32.3 0 0 0 1.65,-6.23 l 3.21,-19.9 a 23.58,23.58 0 0 0 0.27,-6.25 5.83,5.83 0 0 0 -2.09,-4.09 c -1.19,-1 -3,-1.44 -5.57,-1.44 h -7.5 z"
     id="path17" />
  <path
     d="m 1541.16,681.11 9.43,-49.44 h 3.29 l 3.25,44.61 17.81,-44.61 h 3.42 l -6.56,49.44 h -2.87 l 5.46,-41.45 -16.75,41.45 h -2.44 l -3.28,-41.39 -7.92,41.39 z"
     id="path18" />
  <path
     d="m 1590.17,681.11 8,-49.44 h 3.3 l -8,49.44 z"
     id="path19" />
  <path
     d="m 1612.45,681.11 8,-49.44 h 2.55 l 10.07,41.74 6.72,-41.74 h 2.93 l -8,49.44 h -2.62 l -10.06,-41.81 -6.73,41.81 z"
     id="path20" />
  <path
     d="m 1660.18,681.11 7.53,-46.76 h -9.89 l 0.43,-2.68 h 22.83 l -0.43,2.68 H 1671 l -7.53,46.76 z"
     id="path21" />
  <path
     d="m 1699.75,681.78 c -3.22,0 -5.6,-0.64 -7.17,-1.93 a 8.1,8.1 0 0 1 -2.85,-5.25 24.75,24.75 0 0 1 0.18,-7.53 l 3.48,-21.61 a 25.33,25.33 0 0 1 2.3,-7.45 12.31,12.31 0 0 1 4.57,-5.06 14.3,14.3 0 0 1 7.65,-1.83 q 4.69,0 7.06,1.83 a 7.89,7.89 0 0 1 2.93,5.06 22.3,22.3 0 0 1 -0.09,7.45 l -3.49,21.67 a 28,28 0 0 1 -2.25,7.5 12.51,12.51 0 0 1 -4.53,5.22 14.07,14.07 0 0 1 -7.79,1.93 z m 0.44,-2.75 a 10.31,10.31 0 0 0 5.69,-1.4 9,9 0 0 0 3.29,-3.94 23.39,23.39 0 0 0 1.68,-5.89 l 3.68,-22.83 a 20.48,20.48 0 0 0 0.21,-5.86 5.75,5.75 0 0 0 -2,-3.87 q -1.68,-1.38 -5.28,-1.38 a 10.36,10.36 0 0 0 -5.68,1.38 8.74,8.74 0 0 0 -3.28,3.87 22.91,22.91 0 0 0 -1.68,5.86 l -3.67,22.83 a 20.71,20.71 0 0 0 -0.22,5.89 5.88,5.88 0 0 0 2,3.94 8.18,8.18 0 0 0 5.26,1.37 z"
     id="path22" />
  <path
     d="m 1730,681.11 8,-49.44 h 2.62 l 10.06,41.74 6.73,-41.74 h 2.93 l -8,49.44 h -2.63 l -10.05,-41.81 -6.73,41.81 z"
     id="path23" />
  <path
     d="m 1792.45,681.11 8,-49.44 H 1812 q 4.45,0 6.69,1.67 a 7.14,7.14 0 0 1 2.78,4.55 18.88,18.88 0 0 1 0,6.53 21.71,21.71 0 0 1 -2,6.29 12,12 0 0 1 -11.5,6.77 h -8.36 l -3.81,23.63 z m 7.51,-26.19 h 7.63 a 11.22,11.22 0 0 0 5.08,-1 8.09,8.09 0 0 0 3.4,-3.32 18.34,18.34 0 0 0 1.94,-6.14 17.44,17.44 0 0 0 0.14,-6.19 4.34,4.34 0 0 0 -2.24,-3.12 11.15,11.15 0 0 0 -4.93,-0.88 h -7.69 z"
     id="path24" />
  <path
     d="m 1831.82,681.11 8,-49.44 h 3.29 l -7.54,46.81 h 15 l -0.42,2.63 z"
     id="path25" />
  <path
     d="m 1861.72,681.11 18.34,-49.44 h 3.84 l 2.48,49.44 H 1883 l -0.37,-13.68 h -12.82 l -4.81,13.68 z m 9,-16.12 h 11.91 l -1.27,-29.3 z"
     id="path26" />
  <path
     d="m 1908.42,681.11 2.58,-15.81 -6,-33.63 h 3.42 l 4.93,29.66 14,-29.66 h 3.42 l -16.46,33.63 -2.55,15.81 z"
     id="path27" />
  <path
     d="m 1938.26,681.11 8,-49.44 h 17.09 l -0.43,2.68 h -13.73 l -3.2,19.84 h 11.29 l -0.41,2.56 h -11.29 l -3.5,21.73 H 1956 l -0.43,2.63 z"
     id="path28" />
  <path
     d="m 1972.08,681.11 8,-49.44 h 12 c 2.93,0 5.09,0.53 6.48,1.61 a 6.67,6.67 0 0 1 2.53,4.4 19.65,19.65 0 0 1 -0.11,6.19 26,26 0 0 1 -1.42,5.25 11.58,11.58 0 0 1 -2.83,4.24 8.93,8.93 0 0 1 -4.9,2.23 l 3.83,25.52 h -3.3 l -3.68,-24.91 h -9.22 l -4,24.91 z m 7.71,-27.47 h 8.55 a 9.15,9.15 0 0 0 5,-1.19 7.69,7.69 0 0 0 2.84,-3.39 20.47,20.47 0 0 0 1.47,-5.19 c 0.51,-3.13 0.37,-5.51 -0.4,-7.14 -0.77,-1.63 -2.73,-2.44 -5.87,-2.44 h -8.48 z"
     id="path29" />
  <path
     d="m 2022.64,681.72 a 10.65,10.65 0 0 1 -6.19,-1.59 8,8 0 0 1 -3.12,-4.46 18.34,18.34 0 0 1 -0.53,-6.77 l 3,-0.92 a 26.15,26.15 0 0 0 0.38,5.74 6.55,6.55 0 0 0 2.09,3.88 7.37,7.37 0 0 0 4.85,1.37 9.69,9.69 0 0 0 6.06,-1.83 q 2.4,-1.83 3.09,-6.11 a 9.52,9.52 0 0 0 -0.74,-5.82 26.76,26.76 0 0 0 -3.83,-5.59 l -7.59,-9 a 13.42,13.42 0 0 1 -2.55,-4.64 10.9,10.9 0 0 1 -0.27,-4.76 11.3,11.3 0 0 1 4.23,-7.51 13.24,13.24 0 0 1 8.27,-2.62 13.75,13.75 0 0 1 4.41,0.64 7.14,7.14 0 0 1 3.18,2.07 8,8 0 0 1 1.73,3.82 20.75,20.75 0 0 1 0.16,5.86 l -2.92,0.67 a 18.69,18.69 0 0 0 -0.22,-5.8 5.61,5.61 0 0 0 -2.14,-3.45 7.82,7.82 0 0 0 -4.57,-1.13 10.27,10.27 0 0 0 -5.89,1.71 7.74,7.74 0 0 0 -3.15,5.49 8.69,8.69 0 0 0 0.18,3.67 10.43,10.43 0 0 0 2.21,3.84 l 7.5,8.79 a 29.08,29.08 0 0 1 4.15,6.26 11.83,11.83 0 0 1 1,7.29 13.59,13.59 0 0 1 -2.42,6.18 10.84,10.84 0 0 1 -4.48,3.58 14.85,14.85 0 0 1 -5.88,1.14 z"
     id="path30" />
  <path
     d="m 2071.5,681.11 8,-49.44 h 17 l -0.42,2.62 h -13.73 l -3.2,19.9 H 2091 l -0.41,2.56 h -11.84 l -3.92,24.36 z"
     id="path31" />
  <path
     d="m 2115.71,681.78 q -4.83,0 -7.17,-1.93 a 8.1,8.1 0 0 1 -2.85,-5.25 24.75,24.75 0 0 1 0.18,-7.53 l 3.48,-21.61 a 25.33,25.33 0 0 1 2.3,-7.45 12.31,12.31 0 0 1 4.57,-5.06 14.28,14.28 0 0 1 7.64,-1.83 c 3.14,0 5.49,0.61 7.07,1.83 a 7.89,7.89 0 0 1 2.93,5.06 22.06,22.06 0 0 1 -0.1,7.45 l -3.49,21.67 a 27.59,27.59 0 0 1 -2.24,7.5 12.51,12.51 0 0 1 -4.53,5.22 14.07,14.07 0 0 1 -7.79,1.93 z m 0.44,-2.75 a 10.31,10.31 0 0 0 5.69,-1.4 9,9 0 0 0 3.29,-3.94 23.39,23.39 0 0 0 1.68,-5.89 l 3.68,-22.83 a 20.85,20.85 0 0 0 0.21,-5.86 5.75,5.75 0 0 0 -2,-3.87 q -1.68,-1.38 -5.28,-1.38 a 10.36,10.36 0 0 0 -5.68,1.38 8.74,8.74 0 0 0 -3.28,3.87 22.91,22.91 0 0 0 -1.68,5.86 l -3.67,22.83 a 20.71,20.71 0 0 0 -0.22,5.89 5.88,5.88 0 0 0 2,3.94 8.16,8.16 0 0 0 5.26,1.37 z"
     id="path32" />
  <path
     d="m 2145.91,681.11 8,-49.44 h 12 c 2.93,0 5.09,0.53 6.48,1.61 a 6.67,6.67 0 0 1 2.53,4.4 19.65,19.65 0 0 1 -0.11,6.19 26,26 0 0 1 -1.42,5.25 11.68,11.68 0 0 1 -2.82,4.24 9,9 0 0 1 -4.91,2.23 l 3.83,25.52 h -3.3 l -3.68,-24.91 h -9.22 l -4,24.91 z m 7.72,-27.47 h 8.54 a 9.15,9.15 0 0 0 5,-1.19 7.69,7.69 0 0 0 2.84,-3.39 20.47,20.47 0 0 0 1.47,-5.19 c 0.51,-3.13 0.37,-5.51 -0.4,-7.14 -0.77,-1.63 -2.73,-2.44 -5.87,-2.44 h -8.48 z"
     id="path33" />
  <path
     d="m 2208,681.11 8,-49.44 h 10.19 a 13.46,13.46 0 0 1 5.5,0.94 6.47,6.47 0 0 1 3,2.66 9.21,9.21 0 0 1 1.14,3.93 20.88,20.88 0 0 1 -0.26,4.79 22.32,22.32 0 0 1 -1.13,4.19 12.28,12.28 0 0 1 -2.31,3.93 7.48,7.48 0 0 1 -4,2.32 6.43,6.43 0 0 1 3.9,2.93 10.37,10.37 0 0 1 1.27,4.61 24.05,24.05 0 0 1 -0.24,4.73 39,39 0 0 1 -1.27,5.37 15.68,15.68 0 0 1 -2.3,4.61 10.64,10.64 0 0 1 -3.84,3.24 13.26,13.26 0 0 1 -6,1.19 z m 3.72,-2.63 h 7.93 q 4.89,0 7,-2.87 c 1.42,-1.91 2.46,-4.86 3.1,-8.85 a 19,19 0 0 0 0.17,-5.43 6.54,6.54 0 0 0 -1.75,-3.91 6,6 0 0 0 -4.43,-1.46 h -8.42 z m 4.05,-25.15 h 8.36 a 7.05,7.05 0 0 0 4.42,-1.28 8.4,8.4 0 0 0 2.59,-3.38 19.35,19.35 0 0 0 1.33,-4.68 17,17 0 0 0 0.13,-4.94 5,5 0 0 0 -2,-3.45 q -1.73,-1.25 -5.63,-1.25 h -6.11 z"
     id="path34" />
  <path
     d="m 2244.91,681.11 18.33,-49.44 h 3.85 l 2.48,49.44 h -3.36 l -0.36,-13.68 H 2253 l -4.82,13.68 z m 9,-16.12 h 11.9 l -1.26,-29.3 z"
     id="path35" />
  <path
     d="m 2285.86,681.11 8,-49.44 h 10.81 q 4.93,0 7.38,1.89 a 8,8 0 0 1 3,5.13 21.54,21.54 0 0 1 -0.06,7.2 l -3.3,20.51 a 26.78,26.78 0 0 1 -2.31,7.53 13,13 0 0 1 -4.6,5.25 14.15,14.15 0 0 1 -7.79,1.93 z m 3.72,-2.63 h 7.63 a 9.11,9.11 0 0 0 9.55,-6.25 32.3,32.3 0 0 0 1.61,-6.2 l 3.2,-19.9 a 23.21,23.21 0 0 0 0.28,-6.25 5.83,5.83 0 0 0 -2.09,-4.09 q -1.78,-1.44 -5.57,-1.44 h -7.5 z"
     id="path36" />
  <path
     d="m 2326.58,681.11 9.42,-49.44 h 3.3 l 3.25,44.61 17.8,-44.61 h 3.42 l -6.55,49.44 h -2.87 l 5.45,-41.45 -16.75,41.45 h -2.44 l -3.28,-41.39 -7.89,41.39 z"
     id="path37" />
  <path
     d="m 2375.58,681.11 8,-49.44 h 3.3 l -8,49.44 z"
     id="path38" />
  <path
     d="m 2397.86,681.11 8,-49.44 h 2.63 l 10.06,41.74 6.72,-41.74 h 2.93 l -8,49.44 h -2.62 l -10.06,-41.81 -6.73,41.81 z"
     id="path39" />
  <path
     d="m 2445.6,681.11 7.52,-46.76 h -9.88 l 0.43,-2.68 h 22.82 l -0.43,2.68 h -9.64 l -7.53,46.76 z"
     id="path40" />
  <path
     d="m 2485.16,681.78 q -4.83,0 -7.17,-1.93 a 8.1,8.1 0 0 1 -2.85,-5.25 24.75,24.75 0 0 1 0.18,-7.53 l 3.48,-21.61 a 25.33,25.33 0 0 1 2.3,-7.45 12.31,12.31 0 0 1 4.57,-5.06 14.28,14.28 0 0 1 7.64,-1.83 c 3.14,0 5.49,0.61 7.07,1.83 a 7.89,7.89 0 0 1 2.93,5.06 22.06,22.06 0 0 1 -0.1,7.45 l -3.49,21.67 a 27.59,27.59 0 0 1 -2.24,7.5 12.51,12.51 0 0 1 -4.53,5.22 14.07,14.07 0 0 1 -7.79,1.93 z m 0.44,-2.75 a 10.31,10.31 0 0 0 5.69,-1.4 9,9 0 0 0 3.29,-3.94 23.39,23.39 0 0 0 1.68,-5.89 l 3.67,-22.83 a 20.52,20.52 0 0 0 0.22,-5.86 5.75,5.75 0 0 0 -2,-3.87 q -1.68,-1.38 -5.28,-1.38 a 10.36,10.36 0 0 0 -5.68,1.38 8.74,8.74 0 0 0 -3.28,3.87 22.91,22.91 0 0 0 -1.68,5.86 l -3.67,22.83 a 21.08,21.08 0 0 0 -0.22,5.89 5.88,5.88 0 0 0 2,3.94 8.16,8.16 0 0 0 5.26,1.37 z"
     id="path41" />
  <path
     d="m 2515.36,681.11 8,-49.44 h 2.62 l 10.02,41.74 6.72,-41.74 h 2.93 l -8,49.44 h -2.62 L 2525,639.3 l -6.73,41.81 z"
     id="path42" />
  <path
     d="m 2577.86,681.11 8,-49.44 h 11.6 q 4.45,0 6.68,1.67 a 7.14,7.14 0 0 1 2.78,4.55 18.86,18.86 0 0 1 0,6.53 22,22 0 0 1 -2,6.29 12,12 0 0 1 -11.5,6.77 H 2585 l -3.8,23.63 z m 7.51,-26.19 h 7.63 a 11.22,11.22 0 0 0 5.08,-1 8.11,8.11 0 0 0 3.41,-3.32 18.36,18.36 0 0 0 1.93,-6.14 17.73,17.73 0 0 0 0.15,-6.19 4.37,4.37 0 0 0 -2.25,-3.12 11.15,11.15 0 0 0 -4.93,-0.88 h -7.69 z"
     id="path43" />
  <path
     d="m 2617.23,681.11 8,-49.44 h 3.29 l -7.52,46.81 h 15 l -0.42,2.63 z"
     id="path44" />
  <path
     d="m 2647.14,681.11 18.33,-49.44 h 3.84 l 2.48,49.44 h -3.35 l -0.37,-13.68 h -12.81 l -4.83,13.68 z m 9,-16.12 H 2668 l -1.26,-29.3 z"
     id="path45" />
  <path
     d="m 2693.82,681.11 2.55,-15.81 -6,-33.63 h 3.42 l 4.93,29.66 14,-29.66 h 3.42 l -16.46,33.63 -2.55,15.81 z"
     id="path46" />
  <path
     d="m 2723.67,681.11 8,-49.44 h 17.09 l -0.43,2.68 h -13.73 l -3.2,19.84 h 11.3 l -0.42,2.56 H 2731 l -3.5,21.73 h 13.92 l -0.42,2.63 z"
     id="path47" />
  <path
     d="m 2757.49,681.11 8,-49.44 h 12 c 2.93,0 5.09,0.53 6.49,1.61 a 6.66,6.66 0 0 1 2.52,4.4 19.65,19.65 0 0 1 -0.11,6.19 25.4,25.4 0 0 1 -1.42,5.25 11.68,11.68 0 0 1 -2.82,4.24 9,9 0 0 1 -4.91,2.23 l 3.83,25.52 h -3.3 L 2774,656.2 h -9.22 l -4,24.91 z m 7.72,-27.47 h 8.54 a 9.21,9.21 0 0 0 5,-1.19 7.67,7.67 0 0 0 2.83,-3.39 20.47,20.47 0 0 0 1.47,-5.19 q 0.76,-4.7 -0.4,-7.14 -1.16,-2.44 -5.86,-2.44 h -8.49 z"
     id="path48" />
  <path
     d="m 2808.05,681.72 a 10.59,10.59 0 0 1 -6.18,-1.59 8,8 0 0 1 -3.13,-4.46 18.34,18.34 0 0 1 -0.53,-6.77 l 3,-0.92 a 26.78,26.78 0 0 0 0.38,5.74 6.56,6.56 0 0 0 2.1,3.88 7.32,7.32 0 0 0 4.84,1.37 9.74,9.74 0 0 0 6.07,-1.83 q 2.4,-1.83 3.09,-6.11 a 9.52,9.52 0 0 0 -0.75,-5.82 26.38,26.38 0 0 0 -3.83,-5.59 l -7.59,-9 A 13.22,13.22 0 0 1 2803,646 a 10.76,10.76 0 0 1 -0.28,-4.76 11.27,11.27 0 0 1 4.24,-7.51 13.19,13.19 0 0 1 8.26,-2.62 13.75,13.75 0 0 1 4.41,0.64 7.14,7.14 0 0 1 3.18,2.07 8,8 0 0 1 1.73,3.82 20.75,20.75 0 0 1 0.16,5.86 l -2.92,0.67 a 18.39,18.39 0 0 0 -0.22,-5.8 5.64,5.64 0 0 0 -2.13,-3.45 7.88,7.88 0 0 0 -4.58,-1.13 10.27,10.27 0 0 0 -5.89,1.71 7.7,7.7 0 0 0 -3.14,5.49 8.53,8.53 0 0 0 0.17,3.67 10.47,10.47 0 0 0 2.22,3.84 l 7.49,8.79 a 29.5,29.5 0 0 1 4.16,6.26 12,12 0 0 1 1,7.29 13.71,13.71 0 0 1 -2.4,6.13 10.84,10.84 0 0 1 -4.48,3.58 14.82,14.82 0 0 1 -5.93,1.17 z"
     id="path49" />
  <path
     d="m 1146.18,504.51 h -112.26 l -18,84.72 h 112.12 a 14.12,14.12 0 0 0 10.1,-4.29 13.85,13.85 0 0 0 4.57,-9.83 v -22.29 a 29,29 0 0 1 2.55,-11.76 l 9.47,-22.43 a 12.33,12.33 0 0 0 1,-4.84 8.86,8.86 0 0 0 -2.7,-6.64 9.39,9.39 0 0 0 -6.85,-2.64 z m -92.74,67.69 10.79,-50.66 h 55.38 c 0,0 -15.5,23 -39.11,23 0,0 28.31,7.73 28.31,27.67 z m 233.24,-67.69 h -98.42 a 17,17 0 0 0 -11.07,4.23 17.6,17.6 0 0 0 -6.37,10.17 l -15,70.32 h 33.91 l 5.4,-25.33 h 59.39 l -5.4,25.33 h 33.91 l 15,-70.32 a 17.37,17.37 0 0 0 0.28,-3 11,11 0 0 0 -3.26,-8.1 11.33,11.33 0 0 0 -8.37,-3.3 z m -28.52,42.36 h -59.38 l 5.4,-25.33 h 59.38 z m 165.14,-42.36 h -104.23 l -18,84.72 h 104.23 a 17.08,17.08 0 0 0 11.07,-4.22 18.36,18.36 0 0 0 6.51,-10.18 l 11.76,-55.92 a 11.37,11.37 0 0 0 0.42,-3 11,11 0 0 0 -3.25,-8.1 11.53,11.53 0 0 0 -8.51,-3.3 z m -33.91,67.83 h -50.8 l 10.79,-50.94 h 50.95 z m 203.89,-64.57 a 10.87,10.87 0 0 1 3.33,8.1 11.37,11.37 0 0 1 -0.42,3 l -15,70.32 h -33.91 l 14.39,-67.69 h -25.33 l -14.53,67.69 h -25.34 l 14.39,-67.69 h -25.47 L 1471,589.19 h -33.91 l 14.95,-70.32 a 17.6,17.6 0 0 1 6.37,-10.17 17.05,17.05 0 0 1 11.07,-4.23 h 115.31 a 11.56,11.56 0 0 1 8.49,3.3 z m 24.78,-3.26 H 1652 l -18,84.72 h -33.91 z m 141.88,0 h 33.92 l -15,70.32 a 17.67,17.67 0 0 1 -6.36,10.17 17.15,17.15 0 0 1 -11.09,4.22 h -16.23 q -12.06,0 -17.61,-9.21 l -28.7,-49 -12.31,58.18 h -33.9 l 14.95,-70.32 a 17.7,17.7 0 0 1 6.37,-10.17 17.08,17.08 0 0 1 11.08,-4.23 h 16.33 q 11.91,0 17.44,9.42 l 28.79,48.86 z m 160.85,17 h -42.5 L 1863.9,589.2 H 1830 l 14.4,-67.69 H 1802 l 3.6,-17 h 118.76 z m 118.9,-17 h -89.83 a 17.06,17.06 0 0 0 -11.08,4.23 17.63,17.63 0 0 0 -6.36,10.17 l -11.91,55.92 a 16.56,16.56 0 0 0 -0.28,3 11,11 0 0 0 3.26,8.17 11.46,11.46 0 0 0 8.37,3.18 h 89.84 a 17.1,17.1 0 0 0 11.07,-4.22 18.47,18.47 0 0 0 6.51,-10.18 L 2051,518.91 a 11.37,11.37 0 0 0 0.42,-3 11,11 0 0 0 -3.26,-8.1 11.49,11.49 0 0 0 -8.47,-3.3 z m -33.91,67.69 H 1955 l 10.79,-50.66 h 50.94 z m 155,-67.69 h 33.91 l -15,70.32 a 17.67,17.67 0 0 1 -6.38,10.18 17.15,17.15 0 0 1 -11.09,4.22 h -16.23 q -12.06,0 -17.61,-9.21 l -28.7,-49 -12.31,58.18 h -33.9 l 14.95,-70.32 a 17.6,17.6 0 0 1 6.37,-10.17 17.05,17.05 0 0 1 11.07,-4.23 h 16.34 q 11.89,0 17.44,9.42 l 28.79,48.86 z m 231.3,0 H 2426 l -15,70.32 a 17.7,17.7 0 0 1 -6.37,10.18 17.12,17.12 0 0 1 -11.08,4.22 h -115.3 A 11.31,11.31 0 0 1 2270,586 a 11,11 0 0 1 -3.26,-8.1 16.56,16.56 0 0 1 0.28,-3 l 14.95,-70.32 h 33.91 l -14.39,67.69 h 25.47 l 14.39,-67.69 h 25.47 l -14.53,67.69 h 25.47 z m 81.53,17 -3.6,16.75 h 76.27 l -3.6,17 h -76.27 l -3.6,16.88 h 84.72 l -3.6,17 h -104.2 a 11.33,11.33 0 0 1 -8.38,-3.25 11,11 0 0 1 -3.25,-8.1 16.56,16.56 0 0 1 0.28,-3 l 11.9,-55.92 a 17.6,17.6 0 0 1 6.37,-10.17 17,17 0 0 1 11.07,-4.23 h 104.37 l -3.6,17 z m 216.49,-17 h -98.41 a 17.06,17.06 0 0 0 -11.08,4.23 17.63,17.63 0 0 0 -6.36,10.17 l -15,70.32 h 33.92 l 5.4,-25.33 H 2658 l -5.4,25.33 h 33.91 l 15,-70.32 a 17.35,17.35 0 0 0 0.27,-3 11,11 0 0 0 -3.25,-8.1 11.34,11.34 0 0 0 -8.4,-3.3 z m -28.51,42.36 h -59.38 l 5.39,-25.33 h 59.4 z m 168,-18.32 -44.29,43.65 h 40.69 l -3.6,17 h -51.63 q -6.23,0 -9.83,-3.89 a 14,14 0 0 1 -3.6,-9.87 q 0,-9.59 7.63,-17.24 l 37.87,-36.69 h -50.84 l -14.38,67.69 h -33.84 l 14.95,-70.32 a 17.63,17.63 0 0 1 6.36,-10.17 17.08,17.08 0 0 1 11.08,-4.23 H 2824 a 11,11 0 0 1 8.23,3.18 11.15,11.15 0 0 1 3.12,8.15 q -0.01,7.08 -5.69,12.74 z"
     id="path50" />
  <path
     d="m 219.3,612.82 a 474.19,474.19 0 0 1 -37.67,-66.5 400.51,400.51 0 0 1 -25.33,-70.16 l -2.25,-8.92 -1.86,-9 c -1.41,-5.95 -2.17,-12 -3.25,-18 -0.27,-1.49 -0.42,-3 -0.6,-4.5 l -0.56,-4.5 -0.56,-4.48 -0.3,-2.26 -0.16,-2.24 c -0.44,-6 -1.06,-12 -1.15,-18 -0.68,-12 0,-23.86 0.65,-35.67 l 0.93,-8.82 0.46,-4.4 c 0.16,-1.46 0.44,-2.92 0.66,-4.37 l 1.31,-8.73 c 0.47,-2.89 1.15,-5.76 1.71,-8.64 1,-5.77 2.68,-11.42 4,-17.1 l 0.53,-2.12 0.65,-2.1 1.29,-4.19 c 0.89,-2.8 1.64,-5.62 2.65,-8.36 l 3,-8.24 c 0.52,-1.38 1,-2.76 1.51,-4.12 l 1.72,-4 c 0.49,-1.11 1,-2.24 1.45,-3.36 -11,-44.65 -18.3,-82.58 -23.19,-113 l -0.09,0.09 c -2.3,3 -4.5,6 -6.74,9.08 -2.24,3.08 -4.48,6 -6.64,9.13 l -6.12,9.51 -3,4.77 c -1,1.6 -2.07,3.16 -2.95,4.84 l -5.4,9.87 -2.73,5 c -0.45,0.82 -0.93,1.64 -1.35,2.47 l -1.21,2.56 -4.82,10.25 c -3.35,6.75 -5.87,13.87 -8.66,20.87 l -2,5.26 c -0.67,1.75 -1.2,3.56 -1.8,5.35 L 88,276.85 c -1.14,3.57 -2,7.26 -3,10.88 l -1.43,5.46 -0.71,2.72 -0.58,2.77 c -1.53,7.36 -3.15,14.7 -4.11,22.16 -2.49,14.8 -3.35,29.8 -3.81,44.7 l 0.1,11.17 0.08,5.58 c 0.07,1.86 0.22,3.72 0.32,5.57 l 0.72,11.11 c 0.3,3.69 0.79,7.36 1.19,11 0.69,7.37 2.09,14.6 3.26,21.87 l 0.46,2.72 0.58,2.7 1.15,5.38 c 0.81,3.58 1.48,7.19 2.44,10.73 1.94,7 3.63,14.16 6,21.07 L 94,484.82 97.71,495 c 2.4,6.86 5.4,13.42 8.21,20.06 1.39,3.34 3,6.54 4.56,9.78 1.56,3.24 3,6.52 4.72,9.68 l 5.09,9.47 2.54,4.72 2.72,4.6 5.45,9.19 c 1.85,3.06 3.86,6 5.78,9 a 427.89,427.89 0 0 0 52.87,65.67 457.16,457.16 0 0 0 63.25,53.63 421.31,421.31 0 0 0 70.92,40.51 783.35,783.35 0 0 1 -56.48,-56.79 588.06,588.06 0 0 1 -48.04,-61.7 z"
     id="path51" />
  <path
     d="m 963.4,298.65 c -100.57,-55 -156.58,-64.08 -187.93,-57 46.43,-36.59 113,-68.9 113,-68.9 -0.42,-0.11 -0.86,-0.23 -1.27,-0.36 a 326.77,326.77 0 0 0 -277,46.4 c -108.29,75.67 -228.84,224.34 -170.37,498.88 0.58,-2.38 70.41,-274.62 523.59,-419 z"
     id="path52" />
  <path
     d="M 366.22,718 C 364.77,713.39 224.63,316.63 601.76,141.22 l 31.4,-13 c 0,0 -196.34,-11.39 -328,134.33 -0.24,-1.64 -7.35,-54.4 7,-109.68 a 215.26,215.26 0 0 1 9.11,-27.57 c 1.31,-0.67 2.64,-1.31 4,-1.94 43.88,-21.08 92.27,-34.44 142.14,-41 a 595.91,595.91 0 0 1 152.94,0.23 c 3.23,0.4 6.49,0.65 9.69,1.18 l 9.65,1.51 9.68,1.5 c 1.63,0.22 3.21,0.57 4.81,0.88 l 4.82,0.9 9.67,1.8 4.86,0.9 c 1.6,0.32 3.2,0.73 4.81,1.08 6.39,1.5 12.85,2.88 19.31,4.28 25.72,6.19 51.29,13.85 77,22.54 C 731.44,86.35 681.55,61.92 628.79,44.94 A 509.39,509.39 0 0 0 463,20.75 C 409.54,21.82 355.46,31.59 304.29,51.57 q -4.68,1.82 -9.31,3.76 A 400.46,400.46 0 0 0 244.05,81 q -13.37,7.9 -26.15,17 l -8.9,6.6 -4.48,3.33 -4.3,3.55 c -5.7,4.79 -11.58,9.34 -17,14.56 v 0 c 1.75,20.35 5.67,54.66 14.53,101.31 C 214,313 246.77,440.25 313,599.14 q 23.62,56.81 53.22,118.86 z"
     id="path53" />
  <path
     d="m 408.06,811.75 c 35.23,-0.57 63.3,-31.39 62.7,-68.85 L 343.19,745 c 0.6,37.41 29.65,67.31 64.87,66.75 z"
     id="path54" />
  <text
     xml:space="preserve"
     style="font-style:normal;font-variant:normal;font-weight:normal;font-stretch:normal;font-size:210.861px;font-family:Oswald;-inkscape-font-specification:'Oswald, Normal';font-variant-ligatures:normal;font-variant-caps:normal;font-variant-numeric:normal;font-variant-east-asian:normal;fill:#000000;stroke-width:1.09825"
     x="1273.2758"
     y="1179.0554"
     id="text54"
     inkscape:transform-center-x="-35.1084"
     inkscape:transform-center-y="1.7125857"
     transform="scale(1.0982373,0.91055006)"><tspan
       sodipodi:role="line"
       id="tspan54"
       x="1273.2758"
       y="1179.0554"
       style="font-style:normal;font-variant:normal;font-weight:normal;font-stretch:normal;font-size:210.861px;font-family:Oswald;-inkscape-font-specification:'Oswald, Normal';font-variant-ligatures:normal;font-variant-caps:normal;font-variant-numeric:normal;font-variant-east-asian:normal;stroke-width:1.09825">XL</tspan></text>
</svg>
