<?xml version="1.0" encoding="UTF-8" standalone="no"?>
<svg
   id="Layer_1"
   data-name="Layer 1"
   viewBox="0 0 2934.52 827.8"
   version="1.1"
   sodipodi:docname="Logo White Wording.svg"
   inkscape:export-filename="Logo White Wording.pdf"
   inkscape:export-xdpi="96"
   inkscape:export-ydpi="96"
   inkscape:version="1.3.2 (091e20e, 2023-11-25, custom)"
   xmlns:inkscape="http://www.inkscape.org/namespaces/inkscape"
   xmlns:sodipodi="http://sodipodi.sourceforge.net/DTD/sodipodi-0.dtd"
   xmlns="http://www.w3.org/2000/svg"
   xmlns:svg="http://www.w3.org/2000/svg">
  <sodipodi:namedview
     id="namedview9"
     pagecolor="#030303"
     bordercolor="#000000"
     borderopacity="0.25"
     inkscape:showpageshadow="2"
     inkscape:pageopacity="0.0"
     inkscape:pagecheckerboard="false"
     inkscape:deskcolor="#d1d1d1"
     inkscape:zoom="0.50604528"
     inkscape:cx="1467.26"
     inkscape:cy="413.99458"
     inkscape:window-width="2560"
     inkscape:window-height="1369"
     inkscape:window-x="-8"
     inkscape:window-y="-8"
     inkscape:window-maximized="1"
     inkscape:current-layer="Layer_1" />
  <defs
     id="defs1">
    <style
       id="style1">.cls-1{fill:#fff;}</style>
  </defs>
  <path
     class="cls-1"
     d="M1431,296.31H1139.14l-12.38,57.61h262.37l-12.38,58.57H1114.38l-24.76,116.66H973l51.43-241.89q4.27-20.46,21.9-35t38.09-14.52h359Z"
     id="path1" />
  <path
     class="cls-1"
     d="M1805.76,529.15h-329.5q-17.62,0-28.81-11.19t-11.19-27.86a57.93,57.93,0,0,1,1-10.47l51.42-241.89H1605.3l-49.52,232.84h262.36Z"
     id="path2" />
  <path
     class="cls-1"
     d="M2262.87,479.63q-4.76,20.47-22.38,35t-38.09,14.53h-309q-17.61,0-28.8-10.95t-11.19-28.1a57.92,57.92,0,0,1,.95-10.47l41-192.37q4.28-20.46,21.9-35t38.09-14.52h309q18.09,0,29.28,11.19t11.2,27.85a39.74,39.74,0,0,1-1.43,10.48Zm-115.23-9.05,37.62-174.27H2010l-37.14,174.27Z"
     id="path3" />
  <path
     class="cls-1"
     d="M2818.07,479.63q-4.28,20.47-21.9,35t-38.09,14.53H2361.44q-17.62,0-28.81-11.19t-11.19-27.86a57.92,57.92,0,0,1,.95-10.47l51.43-241.89h116.65L2441,470.58h87.61l49.51-232.84h87.63l-50,232.84h87.62l49.52-232.84H2869.5Z"
     id="path4" />
  <path
     class="cls-1"
     d="M1085,593.33H972.21l-18.08,85.12h112.66a14.21,14.21,0,0,0,10.15-4.31,13.9,13.9,0,0,0,4.59-9.88V641.87a29.12,29.12,0,0,1,2.56-11.82l9.52-22.54a12.44,12.44,0,0,0,1-4.86,8.93,8.93,0,0,0-2.72-6.68A9.44,9.44,0,0,0,1085,593.33Zm-93.19,68,10.85-50.9h55.64s-15.58,23.1-39.3,23.1c0,0,28.44,7.76,28.44,27.8Zm234.36-68h-98.89a17.15,17.15,0,0,0-11.13,4.24,17.73,17.73,0,0,0-6.39,10.22l-15,70.66h34.08l5.42-25.45h59.67l-5.42,25.45h34.08l15-70.66a17.59,17.59,0,0,0,.28-3.06,11.08,11.08,0,0,0-3.27-8.13A11.4,11.4,0,0,0,1226.18,593.33Zm-28.65,42.56h-59.67l5.42-25.45H1203Zm165.93-42.56H1258.73l-18.08,85.12h104.73a17.15,17.15,0,0,0,11.13-4.24A18.42,18.42,0,0,0,1363,664l11.83-56.19a11.92,11.92,0,0,0,.41-3.06,11.07,11.07,0,0,0-3.26-8.13A11.59,11.59,0,0,0,1363.46,593.33Zm-34.07,68.15h-51.05l10.85-51.18h51.18Zm204.87-64.88a10.94,10.94,0,0,1,3.34,8.13,11.51,11.51,0,0,1-.42,3.06l-15,70.66h-34.08l14.47-68h-25.46l-14.6,68H1437l14.47-68H1425.9l-14.46,68h-34.07l15-70.66a17.73,17.73,0,0,1,6.39-10.22,17.18,17.18,0,0,1,11.13-4.24h115.86A11.64,11.64,0,0,1,1534.26,596.6Zm24.89-3.27h34.08l-18.08,85.12h-34.08Zm142.57,0h34.07l-15,70.65a17.7,17.7,0,0,1-6.41,10.23,17.19,17.19,0,0,1-11.14,4.24h-16.31q-12.12,0-17.69-9.25L1640.35,620,1628,678.45h-34.06l15-70.66a17.79,17.79,0,0,1,6.4-10.22,17.15,17.15,0,0,1,11.13-4.24h16.41q12,0,17.53,9.46l28.93,49.09Zm161.61,17.11h-42.7l-14.46,68h-34.08l14.47-68H1744l3.61-17.11H1867Zm119.48-17.11h-90.27a17.15,17.15,0,0,0-11.13,4.24,17.73,17.73,0,0,0-6.39,10.22l-12,56.19a17.66,17.66,0,0,0-.27,3.06,11,11,0,0,0,3.27,8.21,11.51,11.51,0,0,0,8.41,3.2h90.27a17.14,17.14,0,0,0,11.12-4.24,18.5,18.5,0,0,0,6.54-10.23l11.82-56.19a11.51,11.51,0,0,0,.42-3.06,11,11,0,0,0-3.27-8.13A11.56,11.56,0,0,0,1982.81,593.33Zm-34.08,68h-51l10.85-50.9h51.18Zm155.78-68h34.07l-15,70.65a17.77,17.77,0,0,1-6.42,10.23,17.17,17.17,0,0,1-11.14,4.24h-16.3q-12.12,0-17.7-9.25L2043.15,620l-12.38,58.46h-34.06l15-70.66a17.73,17.73,0,0,1,6.39-10.22,17.15,17.15,0,0,1,11.13-4.24h16.41q12,0,17.53,9.46l28.93,49.09Zm232.41,0H2371L2356,664a17.72,17.72,0,0,1-6.39,10.23,17.15,17.15,0,0,1-11.13,4.24H2222.59a11.36,11.36,0,0,1-8.41-3.27,11,11,0,0,1-3.27-8.14,17.66,17.66,0,0,1,.27-3.06l15-70.65h34.07l-14.46,68h25.59l14.46-68h25.6l-14.61,68h25.6Zm81.92,17.11-3.62,16.83h76.64l-3.62,17.1h-76.63l-3.62,17h85.12l-3.61,17.11H2384.76a11.38,11.38,0,0,1-8.41-3.27,11,11,0,0,1-3.27-8.14,16.75,16.75,0,0,1,.28-3.06l12-56.19a17.79,17.79,0,0,1,6.4-10.22,17.15,17.15,0,0,1,11.13-4.24h104.87l-3.62,17.11Zm217.53-17.11h-98.89a17.15,17.15,0,0,0-11.13,4.24,17.73,17.73,0,0,0-6.39,10.22l-15,70.66H2539l5.42-25.45h59.67l-5.42,25.45h34.08l15-70.66a17.59,17.59,0,0,0,.28-3.06,11.08,11.08,0,0,0-3.27-8.13A11.4,11.4,0,0,0,2636.37,593.33Zm-28.65,42.56h-59.67l5.43-25.45h59.66Zm168.85-18.41-44.51,43.86H2773l-3.61,17.11h-51.88q-6.27,0-9.88-3.91a14,14,0,0,1-3.61-9.92q0-9.63,7.66-17.32l38-36.86h-51.09l-14.44,68h-34l15-70.66a17.79,17.79,0,0,1,6.4-10.22,17.15,17.15,0,0,1,11.13-4.24h88.18a11.05,11.05,0,0,1,8.27,3.19,11.2,11.2,0,0,1,3.13,8.19Q2782.27,611.79,2776.57,617.48Z"
     id="path5" />
  <path
     class="cls-1"
     d="M210,610.52A474.83,474.83,0,0,1,172.34,544,399.66,399.66,0,0,1,147,473.86l-2.26-8.92-1.86-9c-1.41-5.95-2.17-12-3.25-18-.27-1.49-.42-3-.6-4.5l-.56-4.5-.56-4.48-.29-2.26-.17-2.24c-.44-6-1.06-12-1.15-18-.68-12,0-23.87.65-35.67l.93-8.82.46-4.4c.16-1.46.44-2.92.66-4.37l1.31-8.73c.47-2.89,1.15-5.76,1.71-8.64,1-5.77,2.69-11.42,4.05-17.1l.53-2.12.65-2.1,1.29-4.19c.9-2.8,1.64-5.62,2.65-8.37l3-8.23c.52-1.38,1-2.77,1.51-4.12l1.72-4c.49-1.11,1-2.24,1.45-3.36-11-44.65-18.3-82.58-23.19-113l-.09.09c-2.3,3-4.5,6.05-6.74,9.08s-4.48,6-6.64,9.13l-6.12,9.51-3,4.77c-1,1.6-2.07,3.16-3,4.84L104.67,212l-2.73,5c-.45.82-.93,1.64-1.35,2.47L99.38,222l-4.82,10.26c-3.35,6.75-5.87,13.87-8.65,20.87l-2,5.26c-.67,1.75-1.21,3.56-1.81,5.34l-3.43,10.77c-1.14,3.57-2,7.26-3,10.88l-1.43,5.46-.71,2.72-.58,2.77c-1.53,7.36-3.15,14.7-4.11,22.16-2.49,14.8-3.35,29.8-3.8,44.7l.09,11.17L65.2,380c.07,1.86.22,3.71.32,5.57l.72,11.11c.3,3.69.79,7.36,1.19,11,.69,7.38,2.09,14.61,3.26,21.88l.46,2.72.58,2.7,1.15,5.37c.81,3.59,1.48,7.2,2.44,10.73,2,7.05,3.63,14.16,6,21.08l3.34,10.38,3.8,10.18c2.4,6.86,5.4,13.42,8.21,20.06,1.39,3.34,3.05,6.53,4.56,9.78s3,6.52,4.72,9.68l5.1,9.47,2.53,4.72,2.72,4.6,5.45,9.19c1.85,3,3.86,6,5.78,9a427.89,427.89,0,0,0,52.87,65.67,456.39,456.39,0,0,0,63.25,53.62A421.36,421.36,0,0,0,314.53,729a783.35,783.35,0,0,1-56.48-56.79A587.66,587.66,0,0,1,210,610.52Z"
     id="path6" />
  <path
     class="cls-1"
     d="M954.11,296.35c-100.57-55-156.58-64.08-187.93-57,46.43-36.59,113-68.9,113-68.9-.42-.11-.86-.23-1.27-.36a326.8,326.8,0,0,0-277,46.39C492.62,292.16,372.07,440.83,430.54,715.36c.58-2.37,70.41-274.61,523.59-419Z"
     id="path7" />
  <path
     class="cls-1"
     d="M356.93,715.73C355.48,711.11,215.34,314.36,592.47,139l31.4-13s-196.33-11.39-328,134.33c-.24-1.64-7.35-54.4,7-109.68A215.91,215.91,0,0,1,312,123c1.31-.66,2.64-1.3,4-1.94,43.88-21.07,92.27-34.43,142.14-41a595.91,595.91,0,0,1,152.94.23c3.23.4,6.49.65,9.69,1.18L630.42,83l9.68,1.5c1.63.22,3.21.57,4.81.87l4.82.91,9.67,1.8,4.86.9c1.61.32,3.21.73,4.81,1.08,6.39,1.5,12.85,2.88,19.32,4.28,25.71,6.19,51.28,13.85,76.94,22.54-43.21-32.81-93.1-57.24-145.86-74.22A509.39,509.39,0,0,0,453.66,18.45C400.2,19.52,346.12,29.29,295,49.27q-4.68,1.81-9.31,3.76a401.71,401.71,0,0,0-50.88,25.62q-13.37,7.95-26.15,17l-8.94,6.61-4.48,3.33-4.3,3.55c-5.7,4.79-11.58,9.33-16.95,14.56h0c1.75,20.35,5.67,54.66,14.53,101.31,16.23,85.65,49,212.9,115.22,371.79Q327.33,653.65,356.93,715.73Z"
     id="path8" />
  <path
     class="cls-1"
     d="M398.77,809.45c35.23-.57,63.3-31.39,62.7-68.85l-127.57,2C334.5,780.1,363.55,810,398.77,809.45Z"
     id="path9" />
</svg>
